<svg version="1.1" id="Layer_1" xmlns="http://www.w3.org/2000/svg" xmlns:xlink="http://www.w3.org/1999/xlink" x="0px" y="0px"
	 width="100%" viewBox="0 0 1920 480" enable-background="new 0 0 1920 480" xml:space="preserve">
<path fill="#121212" opacity="1.000000" stroke="none" 
	d="
M1417.000000,481.000000 
	C944.666687,481.000000 472.833344,481.000000 1.000000,481.000000 
	C1.000000,321.000000 1.000000,161.000000 1.000000,1.000000 
	C641.000000,1.000000 1281.000000,1.000000 1921.000000,1.000000 
	C1921.000000,161.000000 1921.000000,321.000000 1921.000000,481.000000 
	C1753.166626,481.000000 1585.333374,481.000000 1417.000000,481.000000 
M1502.130981,228.344574 
	C1512.643677,268.830017 1523.156494,309.315491 1533.631714,349.656738 
	C1546.574463,349.656738 1559.140015,349.656738 1571.651489,349.656738 
	C1571.651489,272.711456 1571.651489,196.112122 1571.651489,119.312164 
	C1560.537109,119.312164 1549.671753,119.312164 1538.673340,119.312164 
	C1538.673340,163.918259 1538.673340,208.180801 1538.673340,252.443344 
	C1538.375732,252.510101 1538.078003,252.576859 1537.780396,252.643600 
	C1526.395508,208.090561 1515.010498,163.537521 1503.711060,119.318741 
	C1487.864990,119.318741 1472.619385,119.318741 1457.524292,119.318741 
	C1457.524292,196.390015 1457.524292,273.110413 1457.524292,349.664886 
	C1468.639893,349.664886 1479.376221,349.664886 1490.680176,349.664886 
	C1490.680176,295.368164 1490.680176,241.406448 1490.680176,187.444733 
	C1490.997192,187.413406 1491.314209,187.382095 1491.631226,187.350769 
	C1495.094482,200.742752 1498.557617,214.134735 1502.130981,228.344574 
M155.552460,172.789963 
	C155.355133,168.963455 155.191879,165.134842 154.954758,161.310791 
	C153.780731,142.376785 143.459793,127.770462 126.592697,122.476791 
	C120.182808,120.465065 113.271805,119.315697 106.555916,119.153816 
	C87.904076,118.704231 69.234749,118.973099 50.572338,118.981606 
	C49.150303,118.982254 47.728348,119.167503 46.360157,119.263184 
	C46.360157,196.306091 46.360157,272.897858 46.360157,350.002228 
	C53.174133,350.002228 59.790726,350.094910 66.403915,349.984222 
	C83.707497,349.694580 101.087425,350.219177 118.291878,348.736420 
	C138.206787,347.019958 152.492355,333.355133 156.972504,313.911865 
	C160.686066,297.795441 159.255188,281.392944 158.522369,265.153961 
	C158.008469,253.766388 154.524292,242.822571 145.446274,234.888474 
	C141.781433,231.685455 137.394318,229.308823 133.194778,226.460388 
	C145.007660,221.323715 151.348984,211.589828 153.626724,199.535721 
	C155.219009,191.109253 154.977737,182.336319 155.552460,172.789963 
M1079.268921,319.666504 
	C1080.498169,310.807617 1082.619873,301.965607 1082.787354,293.086670 
	C1083.267944,267.605713 1083.085815,242.108978 1082.913574,216.620132 
	C1082.794312,198.976791 1082.833374,181.300110 1081.724121,163.706268 
	C1080.879883,150.317017 1076.147217,138.115387 1065.479370,128.938736 
	C1054.629517,119.605469 1041.751709,116.807991 1027.922119,116.764130 
	C1015.890869,116.725975 1004.397278,118.746307 994.247620,125.677177 
	C978.744995,136.263397 973.251709,152.059326 973.086792,169.717560 
	C972.688232,212.363724 972.891174,255.016495 973.057190,297.665802 
	C973.079651,303.443848 973.817993,309.316986 975.033203,314.972382 
	C977.669434,327.240723 983.444275,337.749054 994.343384,344.688904 
	C1010.913757,355.239960 1028.803833,355.726013 1047.175171,350.917450 
	C1050.579834,350.026276 1051.778198,350.420197 1053.432617,353.831909 
	C1055.602539,358.306946 1058.747803,362.695282 1062.497070,365.937256 
	C1070.117432,372.526672 1079.898071,371.533997 1089.163696,371.729736 
	C1089.952515,371.746368 1091.463135,370.170593 1091.477295,369.315399 
	C1091.641479,359.374939 1091.582153,349.430786 1091.582153,339.640686 
	C1086.723511,339.004761 1082.381104,338.782318 1078.217163,337.802002 
	C1073.253784,336.633362 1072.538818,334.343414 1074.774292,329.962158 
	C1076.353760,326.866455 1077.612549,323.607147 1079.268921,319.666504 
M1175.221191,181.500107 
	C1175.221191,160.750626 1175.221191,140.001144 1175.221191,119.255600 
	C1162.564697,119.255600 1150.493774,119.255600 1138.101685,119.255600 
	C1138.101685,121.339264 1138.101685,123.139954 1138.101685,124.940651 
	C1138.101685,178.085327 1138.064331,231.230057 1138.142578,284.374603 
	C1138.154053,292.185944 1138.193359,300.059692 1139.131226,307.794037 
	C1140.974487,322.995880 1146.699097,336.300995 1160.142700,345.076935 
	C1169.968140,351.491058 1180.991455,353.312653 1192.470825,353.329773 
	C1208.307617,353.353394 1222.925171,349.969421 1233.906982,337.532166 
	C1243.520264,326.644775 1246.860718,313.287781 1246.906616,299.222260 
	C1247.098633,240.413879 1246.998535,181.604568 1246.988037,122.795601 
	C1246.987793,121.543747 1246.779907,120.291931 1246.690063,119.279007 
	C1234.648315,119.279007 1223.056763,119.279007 1211.162476,119.279007 
	C1211.162476,121.383926 1211.162476,123.190598 1211.162476,124.997269 
	C1211.162476,180.974106 1211.164551,236.950928 1211.156494,292.927765 
	C1211.156128,295.925873 1211.150757,298.927673 1211.010986,301.921387 
	C1210.489380,313.097839 1204.230347,319.410095 1193.579224,319.579346 
	C1182.983032,319.747742 1176.868286,314.059265 1175.851074,302.916107 
	C1175.488403,298.943085 1175.252686,294.943176 1175.247681,290.955200 
	C1175.202393,254.803558 1175.221191,218.651825 1175.221191,181.500107 
M442.173523,344.235077 
	C442.586304,346.118378 442.999054,348.001709 443.374359,349.714111 
	C455.761719,349.714111 467.851807,349.714111 480.307159,349.714111 
	C467.759491,272.663116 455.267090,195.951431 442.758362,119.139465 
	C426.012756,119.139465 409.566925,119.139465 392.746368,119.139465 
	C380.230164,195.989914 367.731293,272.734100 355.188019,349.750824 
	C366.777222,349.750824 378.192566,349.750824 389.740295,349.750824 
	C391.949615,334.760254 394.135834,319.926208 396.299957,305.242249 
	C410.060730,305.242249 423.338074,305.242249 436.748413,305.242249 
	C438.545593,318.090057 440.312347,330.720367 442.173523,344.235077 
M1699.755249,351.351440 
	C1717.186523,346.831268 1728.149780,335.786713 1733.091553,318.533997 
	C1738.287964,300.392273 1734.996338,281.914764 1736.124146,263.563354 
	C1724.056274,263.563354 1712.670532,263.563354 1700.996338,263.563354 
	C1700.996338,274.763916 1701.044922,285.579132 1700.963257,296.393341 
	C1700.942017,299.203583 1700.745850,302.054047 1700.231323,304.811707 
	C1698.267700,315.337769 1691.967529,320.264954 1681.825073,319.420654 
	C1671.687744,318.576843 1666.027588,312.788788 1665.990356,301.981079 
	C1665.835571,256.999390 1665.835938,212.016479 1666.002197,167.034836 
	C1666.042114,156.259140 1672.218018,150.071091 1682.380249,149.428314 
	C1692.022827,148.818405 1698.261230,153.949921 1700.191650,164.325790 
	C1700.734741,167.245224 1700.922852,170.261856 1700.961426,173.237946 
	C1701.063965,181.167999 1700.996338,189.100250 1700.996338,197.050552 
	C1712.948120,197.050552 1724.363647,197.050552 1735.006836,197.050552 
	C1735.006836,184.291946 1736.137329,171.704880 1734.747437,159.402542 
	C1732.547729,139.931000 1722.859497,125.149857 1703.262817,118.586067 
	C1693.285767,115.244354 1682.960327,114.897629 1672.691650,116.136078 
	C1653.770874,118.417984 1639.843628,127.652390 1632.818726,146.087311 
	C1629.191284,155.606735 1628.474854,165.495422 1628.452515,175.468689 
	C1628.364380,214.788712 1628.341797,254.109314 1628.490601,293.428986 
	C1628.515015,299.878448 1628.976440,306.427521 1630.174805,312.752625 
	C1634.001953,332.951508 1645.237427,346.831390 1665.811768,351.669220 
	C1676.778198,354.247803 1687.926392,353.892181 1699.755249,351.351440 
M688.677612,121.045372 
	C685.119751,123.467949 681.151428,125.458763 678.072449,128.385162 
	C661.647522,143.996155 660.511658,164.147995 662.525024,184.775085 
	C664.149231,201.414627 672.254456,215.400467 683.618652,227.273987 
	C693.742737,237.851868 704.738281,247.589783 715.089661,257.957520 
	C727.805847,270.693756 735.133423,285.535767 732.106323,304.191162 
	C730.467957,314.287933 724.670776,319.535339 714.583130,319.593781 
	C704.443787,319.652527 698.212463,314.577362 696.994690,304.423706 
	C696.091919,296.896271 696.019470,289.269257 695.575745,281.662781 
	C684.052795,281.662781 672.652161,281.662781 660.587158,281.662781 
	C661.080627,291.165802 661.214355,300.322876 662.096130,309.407318 
	C664.178650,330.862518 677.140930,346.716919 697.459290,351.228088 
	C706.077087,353.141388 715.360962,353.495911 724.185364,352.736847 
	C742.464966,351.164429 756.938293,342.623566 764.155212,325.051270 
	C772.526245,304.668732 772.008362,283.860718 764.366150,263.334259 
	C760.005066,251.620880 752.408997,241.879028 743.589905,233.180237 
	C734.697388,224.408981 725.321045,216.126984 716.460388,207.324890 
	C705.385803,196.323395 697.674377,183.757935 698.947815,167.201279 
	C699.746155,156.821655 704.674072,150.704651 713.806702,149.681534 
	C723.565247,148.588287 730.533264,152.644867 732.775330,161.069321 
	C733.576721,164.080582 733.832153,167.282761 733.970276,170.413956 
	C734.165222,174.834702 734.019653,179.270493 734.019653,183.597595 
	C746.104858,183.597595 757.499146,183.597595 769.598938,183.597595 
	C769.018250,174.413223 769.206726,165.507416 767.749512,156.879562 
	C764.921814,140.137741 757.164124,126.309616 740.356140,119.936806 
	C723.386169,113.502548 706.271301,113.831078 688.677612,121.045372 
M880.500305,212.737900 
	C873.717834,212.737900 866.935425,212.737900 860.149719,212.737900 
	C860.149719,192.433502 860.149719,172.707306 860.149719,152.587006 
	C880.908936,152.587006 901.330566,152.587006 921.849487,152.587006 
	C921.849487,141.256912 921.849487,130.325531 921.849487,119.192352 
	C888.752686,119.192352 855.854370,119.192352 822.802612,119.192352 
	C822.802612,196.173508 822.802612,272.931274 822.802612,349.725403 
	C855.958862,349.725403 888.865540,349.725403 921.641357,349.725403 
	C921.641357,338.404694 921.641357,327.364258 921.641357,315.924835 
	C900.827515,315.924835 880.418518,315.924835 860.104980,315.924835 
	C860.104980,292.584625 860.104980,269.657806 860.104980,246.343948 
	C876.514526,246.343948 892.632996,246.343948 908.872803,246.343948 
	C908.872803,234.918472 908.872803,223.887299 908.872803,212.737885 
	C899.489319,212.737885 890.494812,212.737885 880.500305,212.737900 
M212.157349,348.169586 
	C213.757751,348.780548 215.356293,349.918732 216.958832,349.924377 
	C247.116211,350.030487 277.274048,350.005951 307.431793,349.991699 
	C308.868408,349.991028 310.304962,349.833466 311.709473,349.750854 
	C311.709473,338.474701 311.709473,327.557922 311.709473,316.129944 
	C290.884003,316.129944 270.320099,316.129944 249.671692,316.129944 
	C249.671692,292.721924 249.671692,269.831085 249.671692,246.377899 
	C266.243408,246.377899 282.491486,246.377899 298.742065,246.377899 
	C298.742065,234.878204 298.742065,223.945114 298.742065,212.556046 
	C282.250519,212.556046 266.014313,212.556046 249.563904,212.556046 
	C249.563904,192.509674 249.563904,172.923126 249.563904,152.817596 
	C270.340240,152.817596 290.906799,152.817596 311.673157,152.817596 
	C311.673157,141.259872 311.673157,130.222519 311.673157,119.199371 
	C278.442841,119.199371 245.518204,119.199371 212.148743,119.199371 
	C212.148743,195.359833 212.148743,271.290131 212.157349,348.169586 
M1391.761475,220.584305 
	C1391.761475,218.131119 1391.761475,215.677917 1391.761475,212.615906 
	C1374.887085,212.615906 1358.516724,212.615906 1342.184814,212.615906 
	C1342.184814,192.391922 1342.184814,172.785309 1342.184814,152.648224 
	C1362.947388,152.648224 1383.494629,152.648224 1404.222168,152.648224 
	C1404.222168,141.199371 1404.222168,130.283127 1404.222168,119.203522 
	C1371.104004,119.203522 1338.205200,119.203522 1305.155029,119.203522 
	C1305.155029,196.151947 1305.155029,272.866486 1305.155029,349.743164 
	C1338.246094,349.743164 1371.134521,349.743164 1404.182861,349.743164 
	C1404.182861,338.564301 1404.182861,327.644592 1404.182861,316.193909 
	C1383.386108,316.193909 1362.838501,316.193909 1342.174438,316.193909 
	C1342.174438,292.744781 1342.174438,269.828583 1342.174438,246.448685 
	C1344.012085,246.448685 1345.642090,246.448730 1347.271973,246.448685 
	C1360.599609,246.448395 1373.928467,246.352280 1387.254028,246.514008 
	C1390.660278,246.555344 1391.973633,245.649216 1391.836548,242.050690 
	C1391.576538,235.230194 1391.761475,228.392731 1391.761475,220.584305 
M1789.952759,305.500000 
	C1789.952759,320.256165 1789.952759,335.012329 1789.952759,349.653564 
	C1823.427612,349.653564 1856.309448,349.653564 1889.077881,349.653564 
	C1889.077881,338.391632 1889.077881,327.480713 1889.077881,316.023132 
	C1868.188477,316.023132 1847.655518,316.023132 1827.281860,316.023132 
	C1827.281860,292.568817 1827.281860,269.671692 1827.281860,246.448685 
	C1829.239990,246.448685 1830.882446,246.448746 1832.525024,246.448700 
	C1845.852295,246.448257 1859.180420,246.512161 1872.505859,246.353226 
	C1873.924561,246.336304 1876.536743,245.047043 1876.556030,244.295242 
	C1876.825562,233.881271 1876.738159,223.458069 1876.738159,212.611816 
	C1859.802490,212.611816 1843.543457,212.611816 1827.270264,212.611816 
	C1827.270264,192.435898 1827.270264,172.702194 1827.270264,152.621155 
	C1848.008667,152.621155 1868.442017,152.621155 1889.108154,152.621155 
	C1889.108154,141.254517 1889.108154,130.239761 1889.108154,119.296333 
	C1855.887695,119.296333 1823.001343,119.296333 1789.952759,119.296333 
	C1789.952759,181.248535 1789.952759,242.874268 1789.952759,305.500000 
M579.981384,208.500000 
	C579.981384,190.055222 579.981384,171.610428 579.981384,152.635742 
	C592.808594,152.635742 605.198914,152.635742 617.690857,152.635742 
	C617.690857,141.188431 617.690857,130.275894 617.690857,119.226669 
	C580.076904,119.226669 542.701111,119.226669 505.416626,119.226669 
	C505.416626,130.516449 505.416626,141.545105 505.416626,152.890442 
	C518.081116,152.890442 530.343079,152.890442 543.087891,152.890442 
	C543.087891,218.735550 543.087891,284.253784 543.087891,349.679382 
	C555.641846,349.679382 567.703369,349.679382 579.981384,349.679382 
	C579.981384,302.738831 579.981384,256.119415 579.981384,208.500000 
z"/>
<path fill="#FEFEFE" opacity="1.000000" stroke="none" 
	d="
M1502.075928,227.935638 
	C1498.557617,214.134735 1495.094482,200.742752 1491.631226,187.350769 
	C1491.314209,187.382095 1490.997192,187.413406 1490.680176,187.444733 
	C1490.680176,241.406448 1490.680176,295.368164 1490.680176,349.664886 
	C1479.376221,349.664886 1468.639893,349.664886 1457.524292,349.664886 
	C1457.524292,273.110413 1457.524292,196.390015 1457.524292,119.318741 
	C1472.619385,119.318741 1487.864990,119.318741 1503.711060,119.318741 
	C1515.010498,163.537521 1526.395508,208.090561 1537.780396,252.643600 
	C1538.078003,252.576859 1538.375732,252.510101 1538.673340,252.443344 
	C1538.673340,208.180801 1538.673340,163.918259 1538.673340,119.312164 
	C1549.671753,119.312164 1560.537109,119.312164 1571.651489,119.312164 
	C1571.651489,196.112122 1571.651489,272.711456 1571.651489,349.656738 
	C1559.140015,349.656738 1546.574463,349.656738 1533.631714,349.656738 
	C1523.156494,309.315491 1512.643677,268.830017 1502.075928,227.935638 
z"/>
<path fill="#FEFEFE" opacity="1.000000" stroke="none" 
	d="
M155.553925,173.254044 
	C154.977737,182.336319 155.219009,191.109253 153.626724,199.535721 
	C151.348984,211.589828 145.007660,221.323715 133.194778,226.460388 
	C137.394318,229.308823 141.781433,231.685455 145.446274,234.888474 
	C154.524292,242.822571 158.008469,253.766388 158.522369,265.153961 
	C159.255188,281.392944 160.686066,297.795441 156.972504,313.911865 
	C152.492355,333.355133 138.206787,347.019958 118.291878,348.736420 
	C101.087425,350.219177 83.707497,349.694580 66.403915,349.984222 
	C59.790726,350.094910 53.174133,350.002228 46.360157,350.002228 
	C46.360157,272.897858 46.360157,196.306091 46.360157,119.263184 
	C47.728348,119.167503 49.150303,118.982254 50.572338,118.981606 
	C69.234749,118.973099 87.904076,118.704231 106.555916,119.153816 
	C113.271805,119.315697 120.182808,120.465065 126.592697,122.476791 
	C143.459793,127.770462 153.780731,142.376785 154.954758,161.310791 
	C155.191879,165.134842 155.355133,168.963455 155.553925,173.254044 
M112.163857,249.052994 
	C102.924370,245.215805 93.318199,246.705780 83.585617,246.567871 
	C83.585617,269.985565 83.585617,292.870972 83.585617,316.082489 
	C91.129936,316.082489 98.424011,316.224731 105.710197,316.045685 
	C114.403687,315.832153 120.180008,311.413757 120.882362,302.740906 
	C121.845047,290.853607 121.944862,278.849457 121.586105,266.920288 
	C121.381195,260.106995 119.348907,253.435776 112.163857,249.052994 
M104.063797,211.931473 
	C111.855133,209.966049 116.890854,204.836884 117.328362,197.050003 
	C117.930931,186.325195 117.695831,175.485016 116.836708,164.773087 
	C116.354332,158.758652 111.959656,154.110657 105.842934,153.427536 
	C98.528839,152.610718 91.053818,153.234833 83.619362,153.234833 
	C83.619362,173.089752 83.619362,192.674744 83.619362,213.008286 
	C90.369812,212.667999 96.799759,212.343872 104.063797,211.931473 
z"/>
<path fill="#FDFDFD" opacity="1.000000" stroke="none" 
	d="
M1079.141724,320.043701 
	C1077.612549,323.607147 1076.353760,326.866455 1074.774292,329.962158 
	C1072.538818,334.343414 1073.253784,336.633362 1078.217163,337.802002 
	C1082.381104,338.782318 1086.723511,339.004761 1091.582153,339.640686 
	C1091.582153,349.430786 1091.641479,359.374939 1091.477295,369.315399 
	C1091.463135,370.170593 1089.952515,371.746368 1089.163696,371.729736 
	C1079.898071,371.533997 1070.117432,372.526672 1062.497070,365.937256 
	C1058.747803,362.695282 1055.602539,358.306946 1053.432617,353.831909 
	C1051.778198,350.420197 1050.579834,350.026276 1047.175171,350.917450 
	C1028.803833,355.726013 1010.913757,355.239960 994.343384,344.688904 
	C983.444275,337.749054 977.669434,327.240723 975.033203,314.972382 
	C973.817993,309.316986 973.079651,303.443848 973.057190,297.665802 
	C972.891174,255.016495 972.688232,212.363724 973.086792,169.717560 
	C973.251709,152.059326 978.744995,136.263397 994.247620,125.677177 
	C1004.397278,118.746307 1015.890869,116.725975 1027.922119,116.764130 
	C1041.751709,116.807991 1054.629517,119.605469 1065.479370,128.938736 
	C1076.147217,138.115387 1080.879883,150.317017 1081.724121,163.706268 
	C1082.833374,181.300110 1082.794312,198.976791 1082.913574,216.620132 
	C1083.085815,242.108978 1083.267944,267.605713 1082.787354,293.086670 
	C1082.619873,301.965607 1080.498169,310.807617 1079.141724,320.043701 
M1039.946533,153.441879 
	C1032.976440,148.612396 1025.388306,148.597260 1018.138855,151.944061 
	C1010.918579,155.277405 1009.607239,162.433350 1009.111389,169.624954 
	C1009.077087,170.122391 1009.097534,170.623810 1009.097534,171.123367 
	C1009.096741,213.587326 1009.041687,256.051453 1009.183411,298.514923 
	C1009.197021,302.597137 1009.956177,306.829590 1011.211548,310.720551 
	C1013.316589,317.245331 1019.371521,320.715271 1027.399414,320.815338 
	C1035.694824,320.918732 1041.977783,317.588287 1044.163330,310.940704 
	C1045.646851,306.428650 1046.642090,301.530060 1046.664062,296.798767 
	C1046.853882,255.834427 1046.859619,214.868500 1046.691528,173.903961 
	C1046.662354,166.779465 1046.027710,159.512604 1039.946533,153.441879 
z"/>
<path fill="#FEFEFE" opacity="1.000000" stroke="none" 
	d="
M1175.221191,182.000122 
	C1175.221191,218.651825 1175.202393,254.803558 1175.247681,290.955200 
	C1175.252686,294.943176 1175.488403,298.943085 1175.851074,302.916107 
	C1176.868286,314.059265 1182.983032,319.747742 1193.579224,319.579346 
	C1204.230347,319.410095 1210.489380,313.097839 1211.010986,301.921387 
	C1211.150757,298.927673 1211.156128,295.925873 1211.156494,292.927765 
	C1211.164551,236.950928 1211.162476,180.974106 1211.162476,124.997269 
	C1211.162476,123.190598 1211.162476,121.383926 1211.162476,119.279007 
	C1223.056763,119.279007 1234.648315,119.279007 1246.690063,119.279007 
	C1246.779907,120.291931 1246.987793,121.543747 1246.988037,122.795601 
	C1246.998535,181.604568 1247.098633,240.413879 1246.906616,299.222260 
	C1246.860718,313.287781 1243.520264,326.644775 1233.906982,337.532166 
	C1222.925171,349.969421 1208.307617,353.353394 1192.470825,353.329773 
	C1180.991455,353.312653 1169.968140,351.491058 1160.142700,345.076935 
	C1146.699097,336.300995 1140.974487,322.995880 1139.131226,307.794037 
	C1138.193359,300.059692 1138.154053,292.185944 1138.142578,284.374603 
	C1138.064331,231.230057 1138.101685,178.085327 1138.101685,124.940651 
	C1138.101685,123.139954 1138.101685,121.339264 1138.101685,119.255600 
	C1150.493774,119.255600 1162.564697,119.255600 1175.221191,119.255600 
	C1175.221191,140.001144 1175.221191,160.750626 1175.221191,182.000122 
z"/>
<path fill="#FEFEFE" opacity="1.000000" stroke="none" 
	d="
M442.126312,343.792847 
	C440.312347,330.720367 438.545593,318.090057 436.748413,305.242249 
	C423.338074,305.242249 410.060730,305.242249 396.299957,305.242249 
	C394.135834,319.926208 391.949615,334.760254 389.740295,349.750824 
	C378.192566,349.750824 366.777222,349.750824 355.188019,349.750824 
	C367.731293,272.734100 380.230164,195.989914 392.746368,119.139465 
	C409.566925,119.139465 426.012756,119.139465 442.758362,119.139465 
	C455.267090,195.951431 467.759491,272.663116 480.307159,349.714111 
	C467.851807,349.714111 455.761719,349.714111 443.374359,349.714111 
	C442.999054,348.001709 442.586304,346.118378 442.126312,343.792847 
M431.011169,264.496216 
	C426.268738,231.109207 421.526276,197.722214 416.783844,164.335205 
	C416.444824,164.318878 416.105804,164.302551 415.766785,164.286209 
	C410.756561,200.402664 405.746307,236.519119 400.710114,272.822449 
	C411.511292,272.822449 421.613525,272.822449 432.139618,272.822449 
	C431.754517,270.190460 431.402954,267.787537 431.011169,264.496216 
z"/>
<path fill="#FDFDFD" opacity="1.000000" stroke="none" 
	d="
M1699.370605,351.514893 
	C1687.926392,353.892181 1676.778198,354.247803 1665.811768,351.669220 
	C1645.237427,346.831390 1634.001953,332.951508 1630.174805,312.752625 
	C1628.976440,306.427521 1628.515015,299.878448 1628.490601,293.428986 
	C1628.341797,254.109314 1628.364380,214.788712 1628.452515,175.468689 
	C1628.474854,165.495422 1629.191284,155.606735 1632.818726,146.087311 
	C1639.843628,127.652390 1653.770874,118.417984 1672.691650,116.136078 
	C1682.960327,114.897629 1693.285767,115.244354 1703.262817,118.586067 
	C1722.859497,125.149857 1732.547729,139.931000 1734.747437,159.402542 
	C1736.137329,171.704880 1735.006836,184.291946 1735.006836,197.050552 
	C1724.363647,197.050552 1712.948120,197.050552 1700.996338,197.050552 
	C1700.996338,189.100250 1701.063965,181.167999 1700.961426,173.237946 
	C1700.922852,170.261856 1700.734741,167.245224 1700.191650,164.325790 
	C1698.261230,153.949921 1692.022827,148.818405 1682.380249,149.428314 
	C1672.218018,150.071091 1666.042114,156.259140 1666.002197,167.034836 
	C1665.835938,212.016479 1665.835571,256.999390 1665.990356,301.981079 
	C1666.027588,312.788788 1671.687744,318.576843 1681.825073,319.420654 
	C1691.967529,320.264954 1698.267700,315.337769 1700.231323,304.811707 
	C1700.745850,302.054047 1700.942017,299.203583 1700.963257,296.393341 
	C1701.044922,285.579132 1700.996338,274.763916 1700.996338,263.563354 
	C1712.670532,263.563354 1724.056274,263.563354 1736.124146,263.563354 
	C1734.996338,281.914764 1738.287964,300.392273 1733.091553,318.533997 
	C1728.149780,335.786713 1717.186523,346.831268 1699.370605,351.514893 
z"/>
<path fill="#FDFDFD" opacity="1.000000" stroke="none" 
	d="
M689.043579,120.948563 
	C706.271301,113.831078 723.386169,113.502548 740.356140,119.936806 
	C757.164124,126.309616 764.921814,140.137741 767.749512,156.879562 
	C769.206726,165.507416 769.018250,174.413223 769.598938,183.597595 
	C757.499146,183.597595 746.104858,183.597595 734.019653,183.597595 
	C734.019653,179.270493 734.165222,174.834702 733.970276,170.413956 
	C733.832153,167.282761 733.576721,164.080582 732.775330,161.069321 
	C730.533264,152.644867 723.565247,148.588287 713.806702,149.681534 
	C704.674072,150.704651 699.746155,156.821655 698.947815,167.201279 
	C697.674377,183.757935 705.385803,196.323395 716.460388,207.324890 
	C725.321045,216.126984 734.697388,224.408981 743.589905,233.180237 
	C752.408997,241.879028 760.005066,251.620880 764.366150,263.334259 
	C772.008362,283.860718 772.526245,304.668732 764.155212,325.051270 
	C756.938293,342.623566 742.464966,351.164429 724.185364,352.736847 
	C715.360962,353.495911 706.077087,353.141388 697.459290,351.228088 
	C677.140930,346.716919 664.178650,330.862518 662.096130,309.407318 
	C661.214355,300.322876 661.080627,291.165802 660.587158,281.662781 
	C672.652161,281.662781 684.052795,281.662781 695.575745,281.662781 
	C696.019470,289.269257 696.091919,296.896271 696.994690,304.423706 
	C698.212463,314.577362 704.443787,319.652527 714.583130,319.593781 
	C724.670776,319.535339 730.467957,314.287933 732.106323,304.191162 
	C735.133423,285.535767 727.805847,270.693756 715.089661,257.957520 
	C704.738281,247.589783 693.742737,237.851868 683.618652,227.273987 
	C672.254456,215.400467 664.149231,201.414627 662.525024,184.775085 
	C660.511658,164.147995 661.647522,143.996155 678.072449,128.385162 
	C681.151428,125.458763 685.119751,123.467949 689.043579,120.948563 
z"/>
<path fill="#FEFEFE" opacity="1.000000" stroke="none" 
	d="
M881.000305,212.737885 
	C890.494812,212.737885 899.489319,212.737885 908.872803,212.737885 
	C908.872803,223.887299 908.872803,234.918472 908.872803,246.343948 
	C892.632996,246.343948 876.514526,246.343948 860.104980,246.343948 
	C860.104980,269.657806 860.104980,292.584625 860.104980,315.924835 
	C880.418518,315.924835 900.827515,315.924835 921.641357,315.924835 
	C921.641357,327.364258 921.641357,338.404694 921.641357,349.725403 
	C888.865540,349.725403 855.958862,349.725403 822.802612,349.725403 
	C822.802612,272.931274 822.802612,196.173508 822.802612,119.192352 
	C855.854370,119.192352 888.752686,119.192352 921.849487,119.192352 
	C921.849487,130.325531 921.849487,141.256912 921.849487,152.587006 
	C901.330566,152.587006 880.908936,152.587006 860.149719,152.587006 
	C860.149719,172.707306 860.149719,192.433502 860.149719,212.737900 
	C866.935425,212.737900 873.717834,212.737900 881.000305,212.737885 
z"/>
<path fill="#FDFDFD" opacity="1.000000" stroke="none" 
	d="
M212.153046,347.695007 
	C212.148743,271.290131 212.148743,195.359833 212.148743,119.199371 
	C245.518204,119.199371 278.442841,119.199371 311.673157,119.199371 
	C311.673157,130.222519 311.673157,141.259872 311.673157,152.817596 
	C290.906799,152.817596 270.340240,152.817596 249.563904,152.817596 
	C249.563904,172.923126 249.563904,192.509674 249.563904,212.556046 
	C266.014313,212.556046 282.250519,212.556046 298.742065,212.556046 
	C298.742065,223.945114 298.742065,234.878204 298.742065,246.377899 
	C282.491486,246.377899 266.243408,246.377899 249.671692,246.377899 
	C249.671692,269.831085 249.671692,292.721924 249.671692,316.129944 
	C270.320099,316.129944 290.884003,316.129944 311.709473,316.129944 
	C311.709473,327.557922 311.709473,338.474701 311.709473,349.750854 
	C310.304962,349.833466 308.868408,349.991028 307.431793,349.991699 
	C277.274048,350.005951 247.116211,350.030487 216.958832,349.924377 
	C215.356293,349.918732 213.757751,348.780548 212.153046,347.695007 
z"/>
<path fill="#FEFEFE" opacity="1.000000" stroke="none" 
	d="
M1391.761475,221.073303 
	C1391.761475,228.392731 1391.576538,235.230194 1391.836548,242.050690 
	C1391.973633,245.649216 1390.660278,246.555344 1387.254028,246.514008 
	C1373.928467,246.352280 1360.599609,246.448395 1347.271973,246.448685 
	C1345.642090,246.448730 1344.012085,246.448685 1342.174438,246.448685 
	C1342.174438,269.828583 1342.174438,292.744781 1342.174438,316.193909 
	C1362.838501,316.193909 1383.386108,316.193909 1404.182861,316.193909 
	C1404.182861,327.644592 1404.182861,338.564301 1404.182861,349.743164 
	C1371.134521,349.743164 1338.246094,349.743164 1305.155029,349.743164 
	C1305.155029,272.866486 1305.155029,196.151947 1305.155029,119.203522 
	C1338.205200,119.203522 1371.104004,119.203522 1404.222168,119.203522 
	C1404.222168,130.283127 1404.222168,141.199371 1404.222168,152.648224 
	C1383.494629,152.648224 1362.947388,152.648224 1342.184814,152.648224 
	C1342.184814,172.785309 1342.184814,192.391922 1342.184814,212.615906 
	C1358.516724,212.615906 1374.887085,212.615906 1391.761475,212.615906 
	C1391.761475,215.677917 1391.761475,218.131119 1391.761475,221.073303 
z"/>
<path fill="#FEFEFE" opacity="1.000000" stroke="none" 
	d="
M1789.952759,305.000000 
	C1789.952759,242.874268 1789.952759,181.248535 1789.952759,119.296333 
	C1823.001343,119.296333 1855.887695,119.296333 1889.108154,119.296333 
	C1889.108154,130.239761 1889.108154,141.254517 1889.108154,152.621155 
	C1868.442017,152.621155 1848.008667,152.621155 1827.270264,152.621155 
	C1827.270264,172.702194 1827.270264,192.435898 1827.270264,212.611816 
	C1843.543457,212.611816 1859.802490,212.611816 1876.738159,212.611816 
	C1876.738159,223.458069 1876.825562,233.881271 1876.556030,244.295242 
	C1876.536743,245.047043 1873.924561,246.336304 1872.505859,246.353226 
	C1859.180420,246.512161 1845.852295,246.448257 1832.525024,246.448700 
	C1830.882446,246.448746 1829.239990,246.448685 1827.281860,246.448685 
	C1827.281860,269.671692 1827.281860,292.568817 1827.281860,316.023132 
	C1847.655518,316.023132 1868.188477,316.023132 1889.077881,316.023132 
	C1889.077881,327.480713 1889.077881,338.391632 1889.077881,349.653564 
	C1856.309448,349.653564 1823.427612,349.653564 1789.952759,349.653564 
	C1789.952759,335.012329 1789.952759,320.256165 1789.952759,305.000000 
z"/>
<path fill="#FEFEFE" opacity="1.000000" stroke="none" 
	d="
M579.981384,209.000000 
	C579.981384,256.119415 579.981384,302.738831 579.981384,349.679382 
	C567.703369,349.679382 555.641846,349.679382 543.087891,349.679382 
	C543.087891,284.253784 543.087891,218.735550 543.087891,152.890442 
	C530.343079,152.890442 518.081116,152.890442 505.416626,152.890442 
	C505.416626,141.545105 505.416626,130.516449 505.416626,119.226669 
	C542.701111,119.226669 580.076904,119.226669 617.690857,119.226669 
	C617.690857,130.275894 617.690857,141.188431 617.690857,152.635742 
	C605.198914,152.635742 592.808594,152.635742 579.981384,152.635742 
	C579.981384,171.610428 579.981384,190.055222 579.981384,209.000000 
z"/>
<path fill="#161616" opacity="1.000000" stroke="none" 
	d="
M112.508453,249.218079 
	C119.348907,253.435776 121.381195,260.106995 121.586105,266.920288 
	C121.944862,278.849457 121.845047,290.853607 120.882362,302.740906 
	C120.180008,311.413757 114.403687,315.832153 105.710197,316.045685 
	C98.424011,316.224731 91.129936,316.082489 83.585617,316.082489 
	C83.585617,292.870972 83.585617,269.985565 83.585617,246.567871 
	C93.318199,246.705780 102.924370,245.215805 112.508453,249.218079 
z"/>
<path fill="#161616" opacity="1.000000" stroke="none" 
	d="
M103.646751,211.975616 
	C96.799759,212.343872 90.369812,212.667999 83.619362,213.008286 
	C83.619362,192.674744 83.619362,173.089752 83.619362,153.234833 
	C91.053818,153.234833 98.528839,152.610718 105.842934,153.427536 
	C111.959656,154.110657 116.354332,158.758652 116.836708,164.773087 
	C117.695831,175.485016 117.930931,186.325195 117.328362,197.050003 
	C116.890854,204.836884 111.855133,209.966049 103.646751,211.975616 
z"/>
<path fill="#151515" opacity="1.000000" stroke="none" 
	d="
M1040.231934,153.683929 
	C1046.027710,159.512604 1046.662354,166.779465 1046.691528,173.903961 
	C1046.859619,214.868500 1046.853882,255.834427 1046.664062,296.798767 
	C1046.642090,301.530060 1045.646851,306.428650 1044.163330,310.940704 
	C1041.977783,317.588287 1035.694824,320.918732 1027.399414,320.815338 
	C1019.371521,320.715271 1013.316589,317.245331 1011.211548,310.720551 
	C1009.956177,306.829590 1009.197021,302.597137 1009.183411,298.514923 
	C1009.041687,256.051453 1009.096741,213.587326 1009.097534,171.123367 
	C1009.097534,170.623810 1009.077087,170.122391 1009.111389,169.624954 
	C1009.607239,162.433350 1010.918579,155.277405 1018.138855,151.944061 
	C1025.388306,148.597260 1032.976440,148.612396 1040.231934,153.683929 
z"/>
<path fill="#141414" opacity="1.000000" stroke="none" 
	d="
M431.031281,264.940430 
	C431.402954,267.787537 431.754517,270.190460 432.139618,272.822449 
	C421.613525,272.822449 411.511292,272.822449 400.710114,272.822449 
	C405.746307,236.519119 410.756561,200.402664 415.766785,164.286209 
	C416.105804,164.302551 416.444824,164.318878 416.783844,164.335205 
	C421.526276,197.722214 426.268738,231.109207 431.031281,264.940430 
z"/>
</svg>