<svg version="1.1" id="Layer_1" xmlns="http://www.w3.org/2000/svg" xmlns:xlink="http://www.w3.org/1999/xlink" x="0px" y="0px"
	 width="100%" viewBox="0 0 1920 480" enable-background="new 0 0 1920 480" xml:space="preserve">
<path fill="#000000" opacity="1.000000" stroke="none" 
	d="
M1418.000000,481.000000 
	C945.333313,481.000000 473.166656,481.000000 1.000000,481.000000 
	C1.000000,321.000000 1.000000,161.000000 1.000000,1.000000 
	C641.000000,1.000000 1281.000000,1.000000 1921.000000,1.000000 
	C1921.000000,161.000000 1921.000000,321.000000 1921.000000,481.000000 
	C1753.500000,481.000000 1586.000000,481.000000 1418.000000,481.000000 
M1535.880981,242.372467 
	C1535.384888,240.870911 1534.796387,239.392914 1534.406616,237.864243 
	C1528.253418,213.727432 1522.143433,189.579620 1515.985840,165.443924 
	C1511.949463,149.622528 1507.852295,133.816605 1503.872314,118.353645 
	C1487.879395,118.353645 1472.478394,118.353645 1457.335938,118.353645 
	C1457.335938,195.764954 1457.335938,272.822388 1457.335938,349.662964 
	C1468.746460,349.662964 1479.819092,349.662964 1491.474365,349.662964 
	C1491.474365,296.911499 1491.474365,244.496216 1491.474365,192.080917 
	C1491.784546,192.054092 1492.094849,192.027252 1492.405029,192.000427 
	C1506.005737,244.610703 1519.606445,297.220978 1533.182983,349.737854 
	C1546.232056,349.737854 1558.983398,349.737854 1572.000000,349.737854 
	C1572.000000,348.516113 1572.000000,347.540192 1572.000000,346.564270 
	C1572.000000,272.084473 1572.000000,197.604675 1572.000000,123.124886 
	C1572.000000,122.458397 1572.262817,121.603432 1571.947388,121.162125 
	C1571.125244,120.011879 1570.068604,118.159676 1569.071899,118.138107 
	C1558.807129,117.916054 1548.535889,118.001816 1538.000000,118.001816 
	C1538.000000,120.153503 1538.000000,121.790718 1538.000000,123.427933 
	C1538.000000,161.417618 1538.028687,199.407410 1537.916504,237.396790 
	C1537.910889,239.316879 1536.689575,241.233414 1535.880981,242.372467 
M130.405777,346.001465 
	C148.622757,338.867035 157.313217,324.285248 158.691879,305.957764 
	C159.854889,290.497131 158.688416,274.815796 157.864685,259.268585 
	C157.384018,250.196350 153.484726,242.011993 146.936142,235.633408 
	C143.225189,232.018784 138.549210,229.394897 135.363403,227.088852 
	C139.480927,222.997238 144.400406,219.167313 147.962891,214.336655 
	C154.340622,205.688568 155.608337,195.121704 155.807877,184.818954 
	C156.010712,174.347305 155.585968,163.684113 153.778214,153.396103 
	C151.239838,138.949875 143.322540,128.370255 128.820755,122.747803 
	C119.717964,119.218590 110.345802,118.710571 101.125076,118.263237 
	C82.896584,117.378883 64.594948,118.002258 46.206856,118.002258 
	C46.206856,195.517548 46.206856,272.568970 46.206856,350.000000 
	C48.031109,350.000000 49.654739,350.000000 51.278370,350.000000 
	C71.270905,350.000000 91.270813,350.303650 111.251556,349.818390 
	C117.393806,349.669189 123.483650,347.362793 130.405777,346.001465 
M972.000000,244.500000 
	C972.000000,258.324341 972.089905,272.149445 971.972595,285.972778 
	C971.872437,297.773468 972.129883,309.442627 975.923096,320.858032 
	C980.070068,333.337830 987.647583,343.013977 999.354370,348.564209 
	C1014.130066,355.569336 1029.807495,355.995911 1045.621948,352.018921 
	C1047.598145,351.521942 1049.630615,351.248108 1051.595337,350.878693 
	C1053.802124,358.822601 1056.619629,362.470001 1061.544189,366.229706 
	C1069.735962,372.483948 1079.314819,372.511658 1088.820923,372.842834 
	C1089.841919,372.878418 1091.828735,370.781067 1091.858765,369.633759 
	C1092.106812,360.146362 1092.090576,350.647583 1091.871948,341.158783 
	C1091.847168,340.085907 1090.222900,338.384033 1089.082886,338.130188 
	C1085.922852,337.426422 1082.628052,337.317719 1079.383667,337.003113 
	C1074.239990,336.504395 1073.063599,334.601715 1075.423706,330.130676 
	C1081.450439,318.713745 1084.024902,306.527252 1084.013062,293.683289 
	C1083.977051,254.875076 1084.335571,216.061935 1083.770630,177.261932 
	C1083.624390,167.211731 1081.755005,156.855362 1078.718750,147.259308 
	C1074.584595,134.193420 1065.038574,124.986015 1052.159790,120.105003 
	C1040.721802,115.769958 1028.829590,115.161751 1016.580566,116.837624 
	C1005.251709,118.387596 995.365662,122.528831 987.302063,130.346848 
	C976.629761,140.694122 972.566772,154.308273 972.186157,168.553452 
	C971.518982,193.519470 972.000000,218.516159 972.000000,244.500000 
M1236.525146,334.983582 
	C1243.448853,325.949402 1246.830688,315.455170 1246.877686,304.358734 
	C1247.134644,243.698334 1247.001709,183.036301 1246.990234,122.374817 
	C1246.989990,120.949608 1246.843018,119.524437 1246.777466,118.336441 
	C1234.591309,118.336441 1222.850708,118.336441 1211.000000,118.336441 
	C1211.000000,120.497086 1211.000000,122.321678 1211.000000,124.146271 
	C1211.000000,181.308044 1211.018921,238.469833 1210.956421,295.631531 
	C1210.952393,299.369202 1211.002686,303.338776 1209.821411,306.787170 
	C1208.185791,311.561279 1206.318115,316.505920 1200.276245,318.066925 
	C1186.419189,321.647095 1176.101562,315.807678 1176.061768,300.382690 
	C1175.909302,241.388107 1176.000000,182.392929 1176.000000,123.397972 
	C1176.000000,121.643181 1176.000000,119.888390 1176.000000,118.328171 
	C1162.941528,118.328171 1150.534912,118.328171 1138.000000,118.328171 
	C1138.000000,120.478149 1138.000000,122.300499 1138.000000,124.122856 
	C1138.000000,179.951416 1137.864014,235.780624 1138.134399,291.607880 
	C1138.179321,300.841522 1138.932129,310.343384 1141.234375,319.235352 
	C1145.424438,335.417694 1156.040405,346.153137 1172.380615,351.054565 
	C1185.080566,354.864075 1197.866699,354.916809 1210.519531,351.852295 
	C1220.690918,349.388763 1229.997681,344.824493 1236.525146,334.983582 
M441.000183,338.400940 
	C441.338318,341.147217 441.378418,343.979980 442.139374,346.603607 
	C442.524231,347.930481 444.193420,349.830139 445.314392,349.852570 
	C457.118744,350.089264 468.929626,349.998993 480.752167,349.998993 
	C468.114868,272.448578 455.529877,195.219315 442.946503,118.000031 
	C426.908051,118.000031 411.587067,118.050392 396.266968,117.959518 
	C393.020813,117.940254 391.346313,118.716827 391.039276,122.425735 
	C390.463104,129.386536 389.405243,136.315918 388.334869,143.225403 
	C386.649078,154.107162 384.753998,164.956314 383.010254,175.829315 
	C381.521545,185.112137 380.174347,194.417725 378.668915,203.697754 
	C376.491180,217.121735 374.220520,230.530640 372.002350,243.948090 
	C370.444031,253.374222 368.908539,262.804169 367.359955,272.231903 
	C365.575012,283.098358 363.777496,293.962738 362.002960,304.830872 
	C360.463074,314.261780 358.938263,323.695129 357.425110,333.130371 
	C356.541931,338.637360 355.694824,344.150146 354.810913,349.791443 
	C366.971802,349.791443 378.416901,349.791443 390.180847,349.791443 
	C391.135620,342.882324 392.050842,336.131927 393.005493,329.387085 
	C393.983643,322.476288 395.195465,315.590851 395.905487,308.653442 
	C396.195282,305.821960 397.179291,304.941864 399.879822,304.963470 
	C410.874329,305.051483 421.872253,304.892792 432.862152,305.134338 
	C434.253510,305.164917 436.614105,306.856689 436.814880,308.063477 
	C438.440887,317.836029 439.658112,327.676666 441.000183,338.400940 
M1666.000000,189.500000 
	C1666.738892,179.872528 1664.419189,170.097794 1667.823120,160.575211 
	C1670.427124,153.290527 1674.703979,149.101913 1685.679321,150.073517 
	C1693.217651,150.740860 1698.807373,156.010345 1699.895142,163.778885 
	C1700.736694,169.788940 1700.777222,175.923325 1700.966064,182.008881 
	C1701.129272,187.267639 1701.000000,192.535461 1701.000000,197.707886 
	C1712.987793,197.707886 1724.392334,197.707886 1736.240723,197.707886 
	C1734.850098,182.637634 1737.787109,167.778427 1734.098389,153.015579 
	C1730.064453,136.871490 1721.569214,124.805008 1705.547119,119.049240 
	C1694.499878,115.080643 1683.153076,114.269600 1671.431152,115.883064 
	C1659.840820,117.478424 1649.977661,121.787262 1641.888550,130.362671 
	C1631.392334,141.489761 1628.303711,155.369400 1628.150513,169.753052 
	C1627.719116,210.239304 1628.068604,250.733307 1627.958130,291.223846 
	C1627.925049,303.373108 1628.863037,315.290802 1634.021484,326.484039 
	C1638.590332,336.397980 1645.465210,344.538971 1655.593384,348.698334 
	C1669.723999,354.501495 1684.581543,355.928009 1699.512451,351.931213 
	C1715.273926,347.712036 1726.538818,338.532013 1732.220825,322.553589 
	C1739.170898,303.009521 1734.267334,283.039948 1736.319458,263.241516 
	C1724.115234,263.241516 1712.711670,263.241516 1701.000000,263.241516 
	C1701.000000,265.611511 1701.050415,267.745575 1700.991455,269.876556 
	C1700.676025,281.288391 1700.768799,292.738281 1699.757568,304.089172 
	C1699.415405,307.928314 1697.039429,312.331390 1694.217041,315.046539 
	C1688.647827,320.404205 1681.578735,320.385925 1674.753174,317.173737 
	C1667.986450,313.989197 1666.109009,307.642365 1666.079102,300.974640 
	C1665.913940,264.150391 1666.000000,227.324997 1666.000000,189.500000 
M699.009094,243.513458 
	C700.430969,244.915421 701.748657,246.445648 703.291443,247.698730 
	C714.173584,256.537354 723.739929,266.405609 729.202454,279.652374 
	C733.161804,289.254028 733.183044,299.148041 730.485535,308.852448 
	C728.290710,316.748474 720.158508,320.398285 710.544556,318.992157 
	C703.198914,317.917816 697.168213,310.850922 697.027161,302.871063 
	C696.898987,295.620789 697.000000,288.366486 697.000000,281.328064 
	C684.600891,281.328064 672.864258,281.328064 660.094727,281.328064 
	C661.085876,293.178406 661.128052,304.791656 663.210388,316.026794 
	C666.492798,333.736847 676.999939,345.817719 694.742615,351.037109 
	C706.566895,354.515442 718.313232,354.633453 730.397644,352.120789 
	C745.894165,348.898560 757.542175,341.003906 764.026428,326.439331 
	C772.048462,308.420502 771.764221,289.665039 767.356934,270.927765 
	C763.771423,255.683731 754.551453,243.481934 743.870361,232.512436 
	C733.319458,221.676605 721.891541,211.688583 711.452148,200.752335 
	C703.162109,192.067780 698.610962,181.289337 699.117920,169.075165 
	C699.387146,162.588943 700.650696,155.520905 706.936218,152.181717 
	C716.184387,147.268723 731.194946,148.541321 732.970337,164.804291 
	C733.659424,171.116562 734.003967,177.466431 734.498535,183.710693 
	C746.324158,183.710693 758.060608,183.710693 770.861389,183.710693 
	C769.538635,172.302658 769.299377,161.046951 766.719055,150.356232 
	C763.623108,137.528793 756.615662,126.780090 743.779114,120.946152 
	C727.304443,113.458755 710.633911,113.346664 693.606140,118.764214 
	C680.144958,123.047028 671.054626,132.106125 666.171387,144.938492 
	C662.013550,155.864838 660.897522,167.286636 661.727051,179.234604 
	C662.740356,193.829956 667.047302,206.893570 675.866211,218.171555 
	C682.746948,226.970917 690.913574,234.764755 699.009094,243.513458 
M1376.500000,153.000000 
	C1385.930420,153.000000 1395.360962,153.000000 1404.711426,153.000000 
	C1404.711426,141.019562 1404.711426,129.614929 1404.711426,118.000000 
	C1372.785156,118.000000 1341.146484,118.084641 1309.509521,117.903069 
	C1305.080322,117.877655 1303.901611,119.163094 1303.909058,123.541107 
	C1304.035889,197.691681 1303.998901,271.842529 1304.010132,345.993317 
	C1304.010376,347.263367 1304.161987,348.533447 1304.237549,349.716858 
	C1337.973877,349.716858 1371.374268,349.716858 1404.714966,349.716858 
	C1404.714966,338.360229 1404.714966,327.288940 1404.714966,315.827087 
	C1383.694092,315.827087 1362.955566,315.827087 1342.283936,315.827087 
	C1342.283936,292.693909 1342.283936,269.958374 1342.283936,246.828232 
	C1358.971069,246.828232 1375.377808,246.828232 1391.713623,246.828232 
	C1391.713623,235.024048 1391.713623,223.619461 1391.713623,211.823303 
	C1375.023804,211.823303 1358.617065,211.823303 1342.287109,211.823303 
	C1342.287109,192.021667 1342.287109,172.618790 1342.287109,153.000000 
	C1353.548584,153.000000 1364.524292,153.000000 1376.500000,153.000000 
M1862.495605,247.000000 
	C1867.262695,247.000000 1872.029785,247.000000 1876.711914,247.000000 
	C1876.711914,235.020538 1876.711914,223.615906 1876.711914,211.819824 
	C1860.020386,211.819824 1843.613647,211.819824 1827.288818,211.819824 
	C1827.288818,192.018112 1827.288818,172.615204 1827.288818,152.819382 
	C1848.313599,152.819382 1869.052246,152.819382 1889.709717,152.819382 
	C1889.709717,141.016006 1889.709717,129.611313 1889.709717,118.000000 
	C1857.781128,118.000000 1826.141968,118.085129 1794.504395,117.902664 
	C1790.067261,117.877083 1788.902222,119.176010 1788.909668,123.546211 
	C1789.035767,197.696884 1788.998901,271.847839 1789.010376,345.998718 
	C1789.010620,347.268341 1789.164795,348.537964 1789.241089,349.714905 
	C1822.977661,349.714905 1856.378174,349.714905 1889.713013,349.714905 
	C1889.713013,338.356201 1889.713013,327.284973 1889.713013,315.823120 
	C1868.690063,315.823120 1847.951538,315.823120 1827.285889,315.823120 
	C1827.285889,292.689880 1827.285889,269.954285 1827.285889,247.000000 
	C1838.879395,247.000000 1850.187988,247.000000 1862.495605,247.000000 
M893.500000,118.000000 
	C869.741394,118.000000 845.982788,118.000000 822.265625,118.000000 
	C822.265625,195.622940 822.265625,272.680725 822.265625,349.739136 
	C855.931152,349.739136 889.330383,349.739136 922.737793,349.739136 
	C922.737793,338.405884 922.737793,327.335541 922.737793,315.873596 
	C901.740906,315.873596 881.003052,315.873596 860.259033,315.873596 
	C860.259033,292.742645 860.259033,270.008087 860.259033,247.000000 
	C862.152344,247.000000 863.789490,247.000000 865.426575,247.000000 
	C878.756470,246.999985 892.086365,247.001144 905.416260,246.998779 
	C907.578064,246.998398 910.000549,247.394684 909.999512,244.033447 
	C909.996277,233.434204 909.998291,222.834976 909.998291,211.848419 
	C893.049133,211.848419 876.642883,211.848419 860.273193,211.848419 
	C860.273193,192.048508 860.273193,172.646423 860.273193,152.851715 
	C881.281189,152.851715 902.019043,152.851715 922.999390,152.851715 
	C922.999390,142.153397 922.937683,131.848068 923.037659,121.544319 
	C923.066833,118.536484 921.587524,117.938751 918.993286,117.967163 
	C910.829712,118.056610 902.664551,118.000046 893.500000,118.000000 
M212.000000,320.500000 
	C212.000000,330.263855 212.000000,340.027710 212.000000,349.714539 
	C245.642990,349.714539 278.711182,349.714539 311.712158,349.714539 
	C311.712158,338.355103 311.712158,327.283478 311.712158,315.820312 
	C291.021027,315.820312 270.614960,315.820312 250.288879,315.820312 
	C250.288879,292.685364 250.288879,269.949036 250.288879,246.817505 
	C266.648407,246.817505 282.722534,246.817505 298.707275,246.817505 
	C298.707275,235.011871 298.707275,223.606827 298.707275,211.809814 
	C282.343811,211.809814 266.269714,211.809814 250.295120,211.809814 
	C250.295120,192.006607 250.295120,172.602997 250.295120,152.805817 
	C270.993683,152.805817 291.399750,152.805817 311.701843,152.805817 
	C311.701843,141.000824 311.701843,129.595551 311.701843,118.296616 
	C278.334534,118.296616 245.266220,118.296616 212.000000,118.296616 
	C212.000000,185.562027 212.000000,252.531006 212.000000,320.500000 
M505.000000,131.507782 
	C505.000000,138.606216 505.000000,145.704666 505.000000,153.187073 
	C517.986328,153.187073 530.395203,153.187073 543.184204,153.187073 
	C543.184204,218.985153 543.184204,284.384766 543.184204,349.709595 
	C555.649475,349.709595 567.721252,349.709595 580.178589,349.709595 
	C580.178589,284.020477 580.178589,218.620865 580.178589,152.824219 
	C592.974792,152.824219 605.383423,152.824219 617.709778,152.824219 
	C617.709778,141.017441 617.709778,129.612167 617.709778,118.289017 
	C580.017090,118.289017 542.615356,118.289017 505.000000,118.289017 
	C505.000000,122.554474 505.000000,126.532700 505.000000,131.507782 
z"/>
<path fill="#FFFFFF" opacity="1.000000" stroke="none" 
	d="
M1535.957642,242.762039 
	C1536.689575,241.233414 1537.910889,239.316879 1537.916504,237.396790 
	C1538.028687,199.407410 1538.000000,161.417618 1538.000000,123.427933 
	C1538.000000,121.790718 1538.000000,120.153503 1538.000000,118.001816 
	C1548.535889,118.001816 1558.807129,117.916054 1569.071899,118.138107 
	C1570.068604,118.159676 1571.125244,120.011879 1571.947388,121.162125 
	C1572.262817,121.603432 1572.000000,122.458397 1572.000000,123.124886 
	C1572.000000,197.604675 1572.000000,272.084473 1572.000000,346.564270 
	C1572.000000,347.540192 1572.000000,348.516113 1572.000000,349.737854 
	C1558.983398,349.737854 1546.232056,349.737854 1533.182983,349.737854 
	C1519.606445,297.220978 1506.005737,244.610703 1492.405029,192.000427 
	C1492.094849,192.027252 1491.784546,192.054092 1491.474365,192.080917 
	C1491.474365,244.496216 1491.474365,296.911499 1491.474365,349.662964 
	C1479.819092,349.662964 1468.746460,349.662964 1457.335938,349.662964 
	C1457.335938,272.822388 1457.335938,195.764954 1457.335938,118.353645 
	C1472.478394,118.353645 1487.879395,118.353645 1503.872314,118.353645 
	C1507.852295,133.816605 1511.949463,149.622528 1515.985840,165.443924 
	C1522.143433,189.579620 1528.253418,213.727432 1534.406616,237.864243 
	C1534.796387,239.392914 1535.384888,240.870911 1535.957642,242.762039 
z"/>
<path fill="#FFFFFF" opacity="1.000000" stroke="none" 
	d="
M130.001633,346.022827 
	C123.483650,347.362793 117.393806,349.669189 111.251556,349.818390 
	C91.270813,350.303650 71.270905,350.000000 51.278370,350.000000 
	C49.654739,350.000000 48.031109,350.000000 46.206856,350.000000 
	C46.206856,272.568970 46.206856,195.517548 46.206856,118.002258 
	C64.594948,118.002258 82.896584,117.378883 101.125076,118.263237 
	C110.345802,118.710571 119.717964,119.218590 128.820755,122.747803 
	C143.322540,128.370255 151.239838,138.949875 153.778214,153.396103 
	C155.585968,163.684113 156.010712,174.347305 155.807877,184.818954 
	C155.608337,195.121704 154.340622,205.688568 147.962891,214.336655 
	C144.400406,219.167313 139.480927,222.997238 135.363403,227.088852 
	C138.549210,229.394897 143.225189,232.018784 146.936142,235.633408 
	C153.484726,242.011993 157.384018,250.196350 157.864685,259.268585 
	C158.688416,274.815796 159.854889,290.497131 158.691879,305.957764 
	C157.313217,324.285248 148.622757,338.867035 130.001633,346.022827 
M122.000000,279.558044 
	C121.665970,274.320160 121.885063,268.971863 120.866684,263.870575 
	C119.384232,256.444702 116.562202,248.861603 106.716331,247.988708 
	C99.262314,247.327866 91.774612,247.047028 84.209221,246.591507 
	C84.209221,270.224548 84.209221,292.925201 84.209221,315.999207 
	C91.520073,315.999207 98.660912,316.429230 105.728348,315.892578 
	C115.000938,315.188477 119.792862,309.915131 120.857788,302.213287 
	C121.844994,295.073547 121.665665,287.772522 122.000000,279.558044 
M97.399452,153.000000 
	C92.983719,153.000000 88.567986,153.000000 84.270569,153.000000 
	C84.270569,173.002609 84.270569,192.376984 84.270569,211.999985 
	C85.677147,211.999985 86.814827,212.000000 87.952507,211.999985 
	C92.442200,211.999863 96.938728,212.157852 101.420052,211.964157 
	C108.950554,211.638672 116.289200,204.958435 116.915977,197.332825 
	C117.616348,188.812073 118.109810,180.226746 117.895706,171.689545 
	C117.575424,158.919052 111.050659,153.000427 97.399452,153.000000 
z"/>
<path fill="#FFFFFF" opacity="1.000000" stroke="none" 
	d="
M972.000000,244.000000 
	C972.000000,218.516159 971.518982,193.519470 972.186157,168.553452 
	C972.566772,154.308273 976.629761,140.694122 987.302063,130.346848 
	C995.365662,122.528831 1005.251709,118.387596 1016.580566,116.837624 
	C1028.829590,115.161751 1040.721802,115.769958 1052.159790,120.105003 
	C1065.038574,124.986015 1074.584595,134.193420 1078.718750,147.259308 
	C1081.755005,156.855362 1083.624390,167.211731 1083.770630,177.261932 
	C1084.335571,216.061935 1083.977051,254.875076 1084.013062,293.683289 
	C1084.024902,306.527252 1081.450439,318.713745 1075.423706,330.130676 
	C1073.063599,334.601715 1074.239990,336.504395 1079.383667,337.003113 
	C1082.628052,337.317719 1085.922852,337.426422 1089.082886,338.130188 
	C1090.222900,338.384033 1091.847168,340.085907 1091.871948,341.158783 
	C1092.090576,350.647583 1092.106812,360.146362 1091.858765,369.633759 
	C1091.828735,370.781067 1089.841919,372.878418 1088.820923,372.842834 
	C1079.314819,372.511658 1069.735962,372.483948 1061.544189,366.229706 
	C1056.619629,362.470001 1053.802124,358.822601 1051.595337,350.878693 
	C1049.630615,351.248108 1047.598145,351.521942 1045.621948,352.018921 
	C1029.807495,355.995911 1014.130066,355.569336 999.354370,348.564209 
	C987.647583,343.013977 980.070068,333.337830 975.923096,320.858032 
	C972.129883,309.442627 971.872437,297.773468 971.972595,285.972778 
	C972.089905,272.149445 972.000000,258.324341 972.000000,244.000000 
M1046.000000,234.500000 
	C1045.666626,211.781097 1045.519165,189.057220 1044.911499,166.345657 
	C1044.657715,156.860306 1038.447754,150.833282 1027.303467,150.626755 
	C1015.867615,150.414810 1010.017700,159.367218 1010.012207,168.264954 
	C1009.985291,212.378418 1009.959595,256.492035 1010.081543,300.605164 
	C1010.090698,303.905914 1010.814270,307.371552 1011.978516,310.470184 
	C1015.159912,318.938019 1022.244202,320.371918 1030.265015,320.037567 
	C1036.740723,319.767609 1044.094482,313.909180 1044.935303,307.646820 
	C1045.544678,303.108582 1045.928345,298.505798 1045.953857,293.929291 
	C1046.062378,274.453369 1046.000000,254.976517 1046.000000,234.500000 
z"/>
<path fill="#FFFFFF" opacity="1.000000" stroke="none" 
	d="
M1236.262939,335.242462 
	C1229.997681,344.824493 1220.690918,349.388763 1210.519531,351.852295 
	C1197.866699,354.916809 1185.080566,354.864075 1172.380615,351.054565 
	C1156.040405,346.153137 1145.424438,335.417694 1141.234375,319.235352 
	C1138.932129,310.343384 1138.179321,300.841522 1138.134399,291.607880 
	C1137.864014,235.780624 1138.000000,179.951416 1138.000000,124.122856 
	C1138.000000,122.300499 1138.000000,120.478149 1138.000000,118.328171 
	C1150.534912,118.328171 1162.941528,118.328171 1176.000000,118.328171 
	C1176.000000,119.888390 1176.000000,121.643181 1176.000000,123.397972 
	C1176.000000,182.392929 1175.909302,241.388107 1176.061768,300.382690 
	C1176.101562,315.807678 1186.419189,321.647095 1200.276245,318.066925 
	C1206.318115,316.505920 1208.185791,311.561279 1209.821411,306.787170 
	C1211.002686,303.338776 1210.952393,299.369202 1210.956421,295.631531 
	C1211.018921,238.469833 1211.000000,181.308044 1211.000000,124.146271 
	C1211.000000,122.321678 1211.000000,120.497086 1211.000000,118.336441 
	C1222.850708,118.336441 1234.591309,118.336441 1246.777466,118.336441 
	C1246.843018,119.524437 1246.989990,120.949608 1246.990234,122.374817 
	C1247.001709,183.036301 1247.134644,243.698334 1246.877686,304.358734 
	C1246.830688,315.455170 1243.448853,325.949402 1236.262939,335.242462 
z"/>
<path fill="#FFFFFF" opacity="1.000000" stroke="none" 
	d="
M441.000061,337.948730 
	C439.658112,327.676666 438.440887,317.836029 436.814880,308.063477 
	C436.614105,306.856689 434.253510,305.164917 432.862152,305.134338 
	C421.872253,304.892792 410.874329,305.051483 399.879822,304.963470 
	C397.179291,304.941864 396.195282,305.821960 395.905487,308.653442 
	C395.195465,315.590851 393.983643,322.476288 393.005493,329.387085 
	C392.050842,336.131927 391.135620,342.882324 390.180847,349.791443 
	C378.416901,349.791443 366.971802,349.791443 354.810913,349.791443 
	C355.694824,344.150146 356.541931,338.637360 357.425110,333.130371 
	C358.938263,323.695129 360.463074,314.261780 362.002960,304.830872 
	C363.777496,293.962738 365.575012,283.098358 367.359955,272.231903 
	C368.908539,262.804169 370.444031,253.374222 372.002350,243.948090 
	C374.220520,230.530640 376.491180,217.121735 378.668915,203.697754 
	C380.174347,194.417725 381.521545,185.112137 383.010254,175.829315 
	C384.753998,164.956314 386.649078,154.107162 388.334869,143.225403 
	C389.405243,136.315918 390.463104,129.386536 391.039276,122.425735 
	C391.346313,118.716827 393.020813,117.940254 396.266968,117.959518 
	C411.587067,118.050392 426.908051,118.000031 442.946503,118.000031 
	C455.529877,195.219315 468.114868,272.448578 480.752167,349.998993 
	C468.929626,349.998993 457.118744,350.089264 445.314392,349.852570 
	C444.193420,349.830139 442.524231,347.930481 442.139374,346.603607 
	C441.378418,343.979980 441.338318,341.147217 441.000061,337.948730 
M428.037170,249.220078 
	C424.933655,222.357315 421.019562,195.620178 416.828888,168.925919 
	C416.372925,168.980896 415.916962,169.035889 415.460999,169.090866 
	C410.684570,203.597092 405.908173,238.103302 401.123108,272.672302 
	C411.136108,272.672302 421.029480,272.672302 431.532257,272.672302 
	C430.485809,264.847931 429.492920,257.423981 428.037170,249.220078 
z"/>
<path fill="#FFFFFF" opacity="1.000000" stroke="none" 
	d="
M1666.000000,190.000000 
	C1666.000000,227.324997 1665.913940,264.150391 1666.079102,300.974640 
	C1666.109009,307.642365 1667.986450,313.989197 1674.753174,317.173737 
	C1681.578735,320.385925 1688.647827,320.404205 1694.217041,315.046539 
	C1697.039429,312.331390 1699.415405,307.928314 1699.757568,304.089172 
	C1700.768799,292.738281 1700.676025,281.288391 1700.991455,269.876556 
	C1701.050415,267.745575 1701.000000,265.611511 1701.000000,263.241516 
	C1712.711670,263.241516 1724.115234,263.241516 1736.319458,263.241516 
	C1734.267334,283.039948 1739.170898,303.009521 1732.220825,322.553589 
	C1726.538818,338.532013 1715.273926,347.712036 1699.512451,351.931213 
	C1684.581543,355.928009 1669.723999,354.501495 1655.593384,348.698334 
	C1645.465210,344.538971 1638.590332,336.397980 1634.021484,326.484039 
	C1628.863037,315.290802 1627.925049,303.373108 1627.958130,291.223846 
	C1628.068604,250.733307 1627.719116,210.239304 1628.150513,169.753052 
	C1628.303711,155.369400 1631.392334,141.489761 1641.888550,130.362671 
	C1649.977661,121.787262 1659.840820,117.478424 1671.431152,115.883064 
	C1683.153076,114.269600 1694.499878,115.080643 1705.547119,119.049240 
	C1721.569214,124.805008 1730.064453,136.871490 1734.098389,153.015579 
	C1737.787109,167.778427 1734.850098,182.637634 1736.240723,197.707886 
	C1724.392334,197.707886 1712.987793,197.707886 1701.000000,197.707886 
	C1701.000000,192.535461 1701.129272,187.267639 1700.966064,182.008881 
	C1700.777222,175.923325 1700.736694,169.788940 1699.895142,163.778885 
	C1698.807373,156.010345 1693.217651,150.740860 1685.679321,150.073517 
	C1674.703979,149.101913 1670.427124,153.290527 1667.823120,160.575211 
	C1664.419189,170.097794 1666.738892,179.872528 1666.000000,190.000000 
z"/>
<path fill="#FFFFFF" opacity="1.000000" stroke="none" 
	d="
M698.758911,243.259445 
	C690.913574,234.764755 682.746948,226.970917 675.866211,218.171555 
	C667.047302,206.893570 662.740356,193.829956 661.727051,179.234604 
	C660.897522,167.286636 662.013550,155.864838 666.171387,144.938492 
	C671.054626,132.106125 680.144958,123.047028 693.606140,118.764214 
	C710.633911,113.346664 727.304443,113.458755 743.779114,120.946152 
	C756.615662,126.780090 763.623108,137.528793 766.719055,150.356232 
	C769.299377,161.046951 769.538635,172.302658 770.861389,183.710693 
	C758.060608,183.710693 746.324158,183.710693 734.498535,183.710693 
	C734.003967,177.466431 733.659424,171.116562 732.970337,164.804291 
	C731.194946,148.541321 716.184387,147.268723 706.936218,152.181717 
	C700.650696,155.520905 699.387146,162.588943 699.117920,169.075165 
	C698.610962,181.289337 703.162109,192.067780 711.452148,200.752335 
	C721.891541,211.688583 733.319458,221.676605 743.870361,232.512436 
	C754.551453,243.481934 763.771423,255.683731 767.356934,270.927765 
	C771.764221,289.665039 772.048462,308.420502 764.026428,326.439331 
	C757.542175,341.003906 745.894165,348.898560 730.397644,352.120789 
	C718.313232,354.633453 706.566895,354.515442 694.742615,351.037109 
	C676.999939,345.817719 666.492798,333.736847 663.210388,316.026794 
	C661.128052,304.791656 661.085876,293.178406 660.094727,281.328064 
	C672.864258,281.328064 684.600891,281.328064 697.000000,281.328064 
	C697.000000,288.366486 696.898987,295.620789 697.027161,302.871063 
	C697.168213,310.850922 703.198914,317.917816 710.544556,318.992157 
	C720.158508,320.398285 728.290710,316.748474 730.485535,308.852448 
	C733.183044,299.148041 733.161804,289.254028 729.202454,279.652374 
	C723.739929,266.405609 714.173584,256.537354 703.291443,247.698730 
	C701.748657,246.445648 700.430969,244.915421 698.758911,243.259445 
z"/>
<path fill="#FFFFFF" opacity="1.000000" stroke="none" 
	d="
M1376.000000,153.000000 
	C1364.524292,153.000000 1353.548584,153.000000 1342.287109,153.000000 
	C1342.287109,172.618790 1342.287109,192.021667 1342.287109,211.823303 
	C1358.617065,211.823303 1375.023804,211.823303 1391.713623,211.823303 
	C1391.713623,223.619461 1391.713623,235.024048 1391.713623,246.828232 
	C1375.377808,246.828232 1358.971069,246.828232 1342.283936,246.828232 
	C1342.283936,269.958374 1342.283936,292.693909 1342.283936,315.827087 
	C1362.955566,315.827087 1383.694092,315.827087 1404.714966,315.827087 
	C1404.714966,327.288940 1404.714966,338.360229 1404.714966,349.716858 
	C1371.374268,349.716858 1337.973877,349.716858 1304.237549,349.716858 
	C1304.161987,348.533447 1304.010376,347.263367 1304.010132,345.993317 
	C1303.998901,271.842529 1304.035889,197.691681 1303.909058,123.541107 
	C1303.901611,119.163094 1305.080322,117.877655 1309.509521,117.903069 
	C1341.146484,118.084641 1372.785156,118.000000 1404.711426,118.000000 
	C1404.711426,129.614929 1404.711426,141.019562 1404.711426,153.000000 
	C1395.360962,153.000000 1385.930420,153.000000 1376.000000,153.000000 
z"/>
<path fill="#FFFFFF" opacity="1.000000" stroke="none" 
	d="
M1861.996094,247.000000 
	C1850.187988,247.000000 1838.879395,247.000000 1827.285889,247.000000 
	C1827.285889,269.954285 1827.285889,292.689880 1827.285889,315.823120 
	C1847.951538,315.823120 1868.690063,315.823120 1889.713013,315.823120 
	C1889.713013,327.284973 1889.713013,338.356201 1889.713013,349.714905 
	C1856.378174,349.714905 1822.977661,349.714905 1789.241089,349.714905 
	C1789.164795,348.537964 1789.010620,347.268341 1789.010376,345.998718 
	C1788.998901,271.847839 1789.035767,197.696884 1788.909668,123.546211 
	C1788.902222,119.176010 1790.067261,117.877083 1794.504395,117.902664 
	C1826.141968,118.085129 1857.781128,118.000000 1889.709717,118.000000 
	C1889.709717,129.611313 1889.709717,141.016006 1889.709717,152.819382 
	C1869.052246,152.819382 1848.313599,152.819382 1827.288818,152.819382 
	C1827.288818,172.615204 1827.288818,192.018112 1827.288818,211.819824 
	C1843.613647,211.819824 1860.020386,211.819824 1876.711914,211.819824 
	C1876.711914,223.615906 1876.711914,235.020538 1876.711914,247.000000 
	C1872.029785,247.000000 1867.262695,247.000000 1861.996094,247.000000 
z"/>
<path fill="#FFFFFF" opacity="1.000000" stroke="none" 
	d="
M894.000000,118.000000 
	C902.664551,118.000046 910.829712,118.056610 918.993286,117.967163 
	C921.587524,117.938751 923.066833,118.536484 923.037659,121.544319 
	C922.937683,131.848068 922.999390,142.153397 922.999390,152.851715 
	C902.019043,152.851715 881.281189,152.851715 860.273193,152.851715 
	C860.273193,172.646423 860.273193,192.048508 860.273193,211.848419 
	C876.642883,211.848419 893.049133,211.848419 909.998291,211.848419 
	C909.998291,222.834976 909.996277,233.434204 909.999512,244.033447 
	C910.000549,247.394684 907.578064,246.998398 905.416260,246.998779 
	C892.086365,247.001144 878.756470,246.999985 865.426575,247.000000 
	C863.789490,247.000000 862.152344,247.000000 860.259033,247.000000 
	C860.259033,270.008087 860.259033,292.742645 860.259033,315.873596 
	C881.003052,315.873596 901.740906,315.873596 922.737793,315.873596 
	C922.737793,327.335541 922.737793,338.405884 922.737793,349.739136 
	C889.330383,349.739136 855.931152,349.739136 822.265625,349.739136 
	C822.265625,272.680725 822.265625,195.622940 822.265625,118.000000 
	C845.982788,118.000000 869.741394,118.000000 894.000000,118.000000 
z"/>
<path fill="#FFFFFF" opacity="1.000000" stroke="none" 
	d="
M212.000000,320.000000 
	C212.000000,252.531006 212.000000,185.562027 212.000000,118.296616 
	C245.266220,118.296616 278.334534,118.296616 311.701843,118.296616 
	C311.701843,129.595551 311.701843,141.000824 311.701843,152.805817 
	C291.399750,152.805817 270.993683,152.805817 250.295120,152.805817 
	C250.295120,172.602997 250.295120,192.006607 250.295120,211.809814 
	C266.269714,211.809814 282.343811,211.809814 298.707275,211.809814 
	C298.707275,223.606827 298.707275,235.011871 298.707275,246.817505 
	C282.722534,246.817505 266.648407,246.817505 250.288879,246.817505 
	C250.288879,269.949036 250.288879,292.685364 250.288879,315.820312 
	C270.614960,315.820312 291.021027,315.820312 311.712158,315.820312 
	C311.712158,327.283478 311.712158,338.355103 311.712158,349.714539 
	C278.711182,349.714539 245.642990,349.714539 212.000000,349.714539 
	C212.000000,340.027710 212.000000,330.263855 212.000000,320.000000 
z"/>
<path fill="#FFFFFF" opacity="1.000000" stroke="none" 
	d="
M505.000000,131.009354 
	C505.000000,126.532700 505.000000,122.554474 505.000000,118.289017 
	C542.615356,118.289017 580.017090,118.289017 617.709778,118.289017 
	C617.709778,129.612167 617.709778,141.017441 617.709778,152.824219 
	C605.383423,152.824219 592.974792,152.824219 580.178589,152.824219 
	C580.178589,218.620865 580.178589,284.020477 580.178589,349.709595 
	C567.721252,349.709595 555.649475,349.709595 543.184204,349.709595 
	C543.184204,284.384766 543.184204,218.985153 543.184204,153.187073 
	C530.395203,153.187073 517.986328,153.187073 505.000000,153.187073 
	C505.000000,145.704666 505.000000,138.606216 505.000000,131.009354 
z"/>
<path fill="#000000" opacity="1.000000" stroke="none" 
	d="
M122.000000,280.050293 
	C121.665665,287.772522 121.844994,295.073547 120.857788,302.213287 
	C119.792862,309.915131 115.000938,315.188477 105.728348,315.892578 
	C98.660912,316.429230 91.520073,315.999207 84.209221,315.999207 
	C84.209221,292.925201 84.209221,270.224548 84.209221,246.591507 
	C91.774612,247.047028 99.262314,247.327866 106.716331,247.988708 
	C116.562202,248.861603 119.384232,256.444702 120.866684,263.870575 
	C121.885063,268.971863 121.665970,274.320160 122.000000,280.050293 
z"/>
<path fill="#000000" opacity="1.000000" stroke="none" 
	d="
M97.879326,153.000000 
	C111.050659,153.000427 117.575424,158.919052 117.895706,171.689545 
	C118.109810,180.226746 117.616348,188.812073 116.915977,197.332825 
	C116.289200,204.958435 108.950554,211.638672 101.420052,211.964157 
	C96.938728,212.157852 92.442200,211.999863 87.952507,211.999985 
	C86.814827,212.000000 85.677147,211.999985 84.270569,211.999985 
	C84.270569,192.376984 84.270569,173.002609 84.270569,153.000000 
	C88.567986,153.000000 92.983719,153.000000 97.879326,153.000000 
z"/>
<path fill="#000000" opacity="1.000000" stroke="none" 
	d="
M1046.000000,235.000000 
	C1046.000000,254.976517 1046.062378,274.453369 1045.953857,293.929291 
	C1045.928345,298.505798 1045.544678,303.108582 1044.935303,307.646820 
	C1044.094482,313.909180 1036.740723,319.767609 1030.265015,320.037567 
	C1022.244202,320.371918 1015.159912,318.938019 1011.978516,310.470184 
	C1010.814270,307.371552 1010.090698,303.905914 1010.081543,300.605164 
	C1009.959595,256.492035 1009.985291,212.378418 1010.012207,168.264954 
	C1010.017700,159.367218 1015.867615,150.414810 1027.303467,150.626755 
	C1038.447754,150.833282 1044.657715,156.860306 1044.911499,166.345657 
	C1045.519165,189.057220 1045.666626,211.781097 1046.000000,235.000000 
z"/>
<path fill="#000000" opacity="1.000000" stroke="none" 
	d="
M428.268616,249.610046 
	C429.492920,257.423981 430.485809,264.847931 431.532257,272.672302 
	C421.029480,272.672302 411.136108,272.672302 401.123108,272.672302 
	C405.908173,238.103302 410.684570,203.597092 415.460999,169.090866 
	C415.916962,169.035889 416.372925,168.980896 416.828888,168.925919 
	C421.019562,195.620178 424.933655,222.357315 428.268616,249.610046 
z"/>
</svg>