<svg version="1.1" id="Layer_1" xmlns="http://www.w3.org/2000/svg" xmlns:xlink="http://www.w3.org/1999/xlink" x="0px" y="0px"
	 width="100%" viewBox="0 0 1920 480" enable-background="new 0 0 1920 480" xml:space="preserve">
<path fill="#FFFFFF" opacity="1.000000" stroke="none" 
	d="
M1417.000000,481.000000 
	C944.666687,481.000000 472.833344,481.000000 1.000000,481.000000 
	C1.000000,321.000000 1.000000,161.000000 1.000000,1.000000 
	C641.000000,1.000000 1281.000000,1.000000 1921.000000,1.000000 
	C1921.000000,161.000000 1921.000000,321.000000 1921.000000,481.000000 
	C1753.166626,481.000000 1585.333374,481.000000 1417.000000,481.000000 
M1490.195923,255.500107 
	C1490.195923,232.013474 1490.195923,208.526840 1490.195923,185.040207 
	C1490.523438,184.997742 1490.850952,184.955276 1491.178467,184.912827 
	C1505.380127,239.858109 1519.581787,294.803406 1533.774170,349.713196 
	C1546.512817,349.713196 1558.911377,349.713196 1571.273193,349.713196 
	C1571.273193,272.690521 1571.273193,195.960297 1571.273193,119.251205 
	C1560.293457,119.251205 1549.696533,119.251205 1538.741333,119.251205 
	C1538.741333,164.314880 1538.741333,209.110016 1538.741333,253.905136 
	C1538.476318,253.942062 1538.211182,253.978989 1537.946167,254.015915 
	C1526.458740,209.036972 1514.971436,164.058029 1503.537476,119.288284 
	C1487.932007,119.288284 1472.854492,119.288284 1457.805176,119.288284 
	C1457.805176,196.328323 1457.805176,273.060883 1457.805176,349.719055 
	C1468.747437,349.719055 1479.343506,349.719055 1490.195923,349.719055 
	C1490.195923,318.455872 1490.195923,287.477997 1490.195923,255.500107 
M46.464428,161.499756 
	C46.464428,224.258301 46.464428,287.016846 46.464428,350.003387 
	C52.734665,350.003387 58.392487,350.077759 64.047775,349.989563 
	C81.525009,349.717133 99.061996,350.185394 116.462540,348.869019 
	C138.182831,347.225891 153.886902,333.420837 156.848434,311.889038 
	C159.049072,295.889252 158.328857,279.403656 157.924393,263.158997 
	C157.653290,252.270645 153.590729,242.247360 145.169022,234.802322 
	C141.530655,231.585892 137.047791,229.324738 132.741684,226.493652 
	C145.314468,221.073120 152.303009,210.849121 153.562531,198.057465 
	C154.938019,184.088165 155.212967,169.740585 153.647079,155.818893 
	C151.623489,137.828049 140.818573,125.835144 122.796486,121.518570 
	C116.853844,120.095222 110.645645,119.237160 104.541580,119.132950 
	C86.052437,118.817284 67.554832,118.994370 49.060524,118.995544 
	C48.290195,118.995590 47.519875,119.157127 46.464462,119.275368 
	C46.464462,133.222351 46.464462,146.861038 46.464428,161.499756 
M979.006714,143.541885 
	C976.989563,152.388016 973.357849,161.210876 973.229919,170.084229 
	C972.619995,212.399155 972.885620,254.728088 973.051880,297.051208 
	C973.075195,302.997284 973.792725,309.039032 975.019470,314.861542 
	C977.606689,327.141571 983.375061,337.653381 994.253235,344.626770 
	C1010.631897,355.126312 1028.364136,355.705017 1046.591797,351.074158 
	C1050.223877,350.151398 1052.747192,349.647217 1053.373169,354.299927 
	C1053.478394,355.083160 1054.047485,355.808746 1054.423706,356.550049 
	C1060.130249,367.792297 1077.457275,375.341614 1089.528809,371.730194 
	C1090.366699,371.479523 1091.482178,370.231354 1091.493042,369.433929 
	C1091.627197,359.484375 1091.580933,349.532440 1091.580933,339.365387 
	C1089.966919,339.270538 1088.834595,339.266968 1087.719238,339.126587 
	C1084.419922,338.711304 1080.970337,338.702484 1077.881836,337.648499 
	C1075.395874,336.800110 1071.457031,335.643341 1074.002686,331.388550 
	C1081.472168,318.904297 1082.995605,305.154236 1082.971924,291.010986 
	C1082.925171,263.017395 1083.072266,235.023010 1082.911133,207.030258 
	C1082.827881,192.550034 1082.960815,178.012894 1081.739258,163.608032 
	C1079.934814,142.328873 1068.893555,123.875801 1045.046387,118.972488 
	C1036.858276,117.288902 1028.181519,116.740852 1019.838806,117.307114 
	C1002.005066,118.517586 987.669678,126.197540 979.006714,143.541885 
M1175.106689,289.472839 
	C1175.106689,232.723068 1175.106689,175.973312 1175.106689,119.231491 
	C1162.599365,119.231491 1150.678833,119.231491 1138.347046,119.231491 
	C1138.347046,121.273041 1138.347046,123.070297 1138.347046,124.867554 
	C1138.347046,179.193192 1138.327515,233.518829 1138.374756,287.844421 
	C1138.380005,293.837250 1138.596802,299.841522 1139.008301,305.820312 
	C1140.666504,329.910553 1154.661865,347.444794 1177.071411,351.490234 
	C1186.555786,353.202362 1196.722534,353.103668 1206.314087,351.831268 
	C1224.484131,349.420807 1237.397949,338.986389 1242.748169,321.311584 
	C1245.497437,312.228546 1246.762817,302.372101 1246.824463,292.853027 
	C1247.189453,236.530045 1247.004395,180.203506 1247.004395,123.878159 
	C1247.004395,122.302727 1247.004395,120.727295 1247.004395,119.220825 
	C1234.756348,119.220825 1223.316528,119.220825 1211.484253,119.220825 
	C1211.484253,121.259796 1211.484253,123.063698 1211.484253,124.867599 
	C1211.484131,181.026306 1211.516724,237.185059 1211.425903,293.343628 
	C1211.418091,298.136932 1211.145020,303.064423 1210.019043,307.692047 
	C1207.970825,316.110779 1201.503174,320.223297 1192.383301,319.788239 
	C1183.511108,319.365051 1177.635376,314.802490 1176.207275,306.368683 
	C1175.324219,301.153595 1175.439575,295.769409 1175.106689,289.472839 
M395.721313,308.188324 
	C396.564087,307.111298 397.392365,305.109528 398.251831,305.096039 
	C411.046112,304.895142 423.844513,304.957245 436.800568,304.957245 
	C439.000214,320.105194 441.142303,334.856598 443.310547,349.788330 
	C455.600616,349.788330 467.701721,349.788330 480.141541,349.788330 
	C467.607635,272.817505 455.109741,196.067917 442.600464,119.248352 
	C425.868042,119.248352 409.470734,119.248352 392.899780,119.248352 
	C380.374908,196.192673 367.887451,272.907288 355.382874,349.727112 
	C367.255524,349.727112 378.350647,349.727112 389.590149,349.727112 
	C391.594055,336.005707 393.561920,322.531250 395.721313,308.188324 
M706.653320,195.778824 
	C700.306763,186.840469 697.980957,176.879089 698.984314,166.032501 
	C699.787964,157.344910 703.832275,151.796768 710.832458,149.977936 
	C723.621277,146.655014 733.077759,153.368103 733.924683,166.655838 
	C734.280396,172.236694 733.983826,177.859131 733.983826,183.540863 
	C746.092651,183.540863 757.340149,183.540863 769.461609,183.540863 
	C768.948730,174.970566 768.945251,166.651581 767.866333,158.474518 
	C764.952271,136.390594 752.362305,121.767349 732.086182,117.526085 
	C724.689270,115.978806 716.847595,115.788246 709.253784,116.094185 
	C685.688477,117.043602 668.783325,131.478149 663.893372,154.460587 
	C657.960571,182.344681 664.414734,207.031052 684.172424,227.713608 
	C694.172791,238.182068 705.054077,247.803162 715.337341,258.008667 
	C727.054077,269.636902 734.100769,283.301758 732.868835,300.375671 
	C732.132263,310.583344 727.988647,316.985596 720.597473,318.951080 
	C706.806885,322.618256 696.942810,315.397278 696.185303,300.808258 
	C695.859680,294.538269 696.130737,288.237305 696.130737,282.072266 
	C684.129272,282.072266 672.751770,282.072266 660.786621,282.072266 
	C661.204041,291.096191 661.012085,299.795563 662.121704,308.325592 
	C664.619202,327.525513 672.998230,343.021912 692.440613,349.750458 
	C706.652283,354.668762 721.226990,354.523590 735.675842,350.256836 
	C749.300171,346.233612 759.127197,337.628143 764.251465,324.459747 
	C772.181213,304.082001 771.826477,283.405426 764.043274,263.072296 
	C757.991516,247.262512 746.199036,235.651932 734.252075,224.168533 
	C724.912781,215.191650 716.104065,205.662750 706.653320,195.778824 
M1734.048340,314.387482 
	C1734.968262,297.636627 1735.888306,280.885773 1736.826416,263.805420 
	C1724.282715,263.805420 1712.858032,263.805420 1701.226685,263.805420 
	C1701.151978,265.339600 1701.038696,266.637573 1701.033325,267.935974 
	C1700.987183,279.266296 1701.213135,290.604675 1700.855835,301.924805 
	C1700.502441,313.128113 1693.859253,319.683411 1683.512085,319.821686 
	C1673.198242,319.959503 1666.880127,313.957367 1665.794312,302.897034 
	C1665.534302,300.249146 1665.382080,297.579102 1665.380493,294.919159 
	C1665.354980,254.761383 1665.348389,214.603592 1665.389648,174.445862 
	C1665.393066,171.122986 1665.578003,167.774490 1666.015869,164.482788 
	C1667.274170,155.022568 1673.452148,149.440338 1682.713135,149.163818 
	C1691.857910,148.890778 1698.134644,153.739929 1700.112183,162.952621 
	C1700.768188,166.008728 1700.941162,169.208725 1700.986328,172.347931 
	C1701.103149,180.471451 1701.025513,188.597778 1701.025513,196.900604 
	C1712.813965,196.900604 1724.200684,196.900604 1735.019043,196.900604 
	C1735.019043,184.371780 1736.053101,171.987061 1734.758789,159.850677 
	C1733.118286,144.467331 1726.844116,130.593994 1712.359741,122.968445 
	C1692.844727,112.694473 1672.450684,112.549843 1652.933228,122.597115 
	C1635.795654,131.419220 1629.858276,147.765533 1629.069824,165.912918 
	C1628.368774,182.047348 1628.761597,198.231705 1628.769409,214.393982 
	C1628.783691,243.886719 1628.116455,273.405884 1629.150635,302.864319 
	C1630.081665,329.383118 1643.773315,348.986969 1671.586548,352.482727 
	C1700.266479,356.087433 1726.185059,347.276428 1734.048340,314.387482 
M297.334717,212.885025 
	C281.396698,212.885025 265.458679,212.885025 249.370697,212.885025 
	C249.370697,192.518951 249.370697,172.753967 249.370697,152.332703 
	C270.280273,152.332703 290.982361,152.332703 311.616028,152.332703 
	C311.616028,140.902496 311.616028,130.130798 311.616028,119.319672 
	C278.493225,119.319672 245.619446,119.319672 212.845154,119.319672 
	C212.845154,196.375214 212.845154,273.093414 212.845154,349.698364 
	C245.985306,349.698364 278.743683,349.698364 311.681702,349.698364 
	C311.681702,338.622131 311.681702,327.850708 311.681702,316.397430 
	C290.833649,316.397430 270.132233,316.397430 249.526062,316.397430 
	C249.526062,292.652649 249.526062,269.591461 249.526062,246.068176 
	C266.143127,246.068176 282.392181,246.068176 299.003510,246.068176 
	C299.003510,241.143463 299.089111,236.675079 298.983124,232.211243 
	C298.830658,225.790817 298.538818,219.373718 297.334717,212.885025 
M1404.189331,124.565491 
	C1404.189331,122.801636 1404.189331,121.037788 1404.189331,119.345093 
	C1370.782837,119.345093 1337.918091,119.345093 1305.298828,119.345093 
	C1305.298828,196.416107 1305.298828,273.128021 1305.298828,349.743835 
	C1338.367676,349.743835 1371.114502,349.743835 1403.892090,349.743835 
	C1403.892090,338.579437 1403.892090,327.674103 1403.892090,316.430420 
	C1383.156372,316.430420 1362.715454,316.430420 1342.186157,316.430420 
	C1342.186157,292.887115 1342.186157,269.688721 1342.186157,245.985611 
	C1358.775391,245.985611 1374.999756,245.985611 1391.104248,245.985611 
	C1391.104248,234.722565 1391.104248,223.969055 1391.104248,212.766998 
	C1374.601074,212.766998 1358.360352,212.766998 1342.190063,212.766998 
	C1342.190063,192.438705 1342.190063,172.566406 1342.190063,152.311050 
	C1362.972534,152.311050 1383.383911,152.311050 1404.189331,152.311050 
	C1404.189331,143.135178 1404.189331,134.342361 1404.189331,124.565491 
M1815.500000,118.986198 
	C1807.068848,118.986198 1798.637695,118.986198 1790.215576,118.986198 
	C1790.215576,196.254593 1790.215576,272.965576 1790.215576,349.655457 
	C1823.322144,349.655457 1856.188965,349.655457 1888.961670,349.655457 
	C1888.961670,338.525635 1888.961670,327.741913 1888.961670,316.433472 
	C1868.195190,316.433472 1847.649170,316.433472 1827.095459,316.433472 
	C1827.095459,292.816742 1827.095459,269.730255 1827.095459,246.139267 
	C1843.591064,246.139267 1859.815796,246.139267 1876.200195,246.139267 
	C1876.200195,234.875961 1876.200195,224.119308 1876.200195,212.912628 
	C1859.793823,212.912628 1843.552002,212.912628 1827.087280,212.912628 
	C1827.087280,192.582901 1827.087280,172.703598 1827.087280,152.271698 
	C1847.887939,152.271698 1868.423706,152.271698 1889.007446,152.271698 
	C1889.007446,140.954193 1889.007446,130.190506 1889.007446,118.986198 
	C1864.718750,118.986198 1840.609375,118.986198 1815.500000,118.986198 
M897.488525,246.187943 
	C901.261292,246.187943 905.033997,246.187943 908.761963,246.187943 
	C908.761963,234.741302 908.761963,223.867447 908.761963,212.774628 
	C892.282471,212.774628 876.157715,212.774628 859.738525,212.774628 
	C859.738525,192.663193 859.738525,172.778854 859.738525,152.416779 
	C880.567261,152.416779 901.118774,152.416779 921.750977,152.416779 
	C921.750977,141.039505 921.750977,130.141724 921.750977,119.354088 
	C888.618042,119.354088 855.756897,119.354088 823.160889,119.354088 
	C823.160889,196.418930 823.160889,273.116852 823.160889,349.728516 
	C856.245972,349.728516 888.981567,349.728516 921.755249,349.728516 
	C921.755249,338.535431 921.755249,327.615051 921.755249,316.255798 
	C900.914673,316.255798 880.338135,316.255798 859.776672,316.255798 
	C859.776672,292.733521 859.776672,269.655426 859.776672,246.187958 
	C872.236328,246.187958 884.364624,246.187958 897.488525,246.187943 
M542.998413,176.500000 
	C542.998413,234.238846 542.998413,291.977692 542.998413,349.617462 
	C555.590088,349.617462 567.632141,349.617462 580.152527,349.617462 
	C580.152527,283.713776 580.152527,218.193146 580.152527,152.203217 
	C592.874756,152.203217 605.114380,152.203217 617.504761,152.203217 
	C617.504761,140.974609 617.504761,130.219666 617.504761,119.342857 
	C579.944702,119.342857 542.601501,119.342857 505.344147,119.342857 
	C505.344147,130.474274 505.344147,141.246094 505.344147,152.523529 
	C517.987671,152.523529 530.394043,152.523529 542.998413,152.523529 
	C542.998413,160.522034 542.998413,168.011032 542.998413,176.500000 
z"/>
<path fill="#030303" opacity="1.000000" stroke="none" 
	d="
M1490.195923,256.000122 
	C1490.195923,287.477997 1490.195923,318.455872 1490.195923,349.719055 
	C1479.343506,349.719055 1468.747437,349.719055 1457.805176,349.719055 
	C1457.805176,273.060883 1457.805176,196.328323 1457.805176,119.288284 
	C1472.854492,119.288284 1487.932007,119.288284 1503.537476,119.288284 
	C1514.971436,164.058029 1526.458740,209.036972 1537.946167,254.015915 
	C1538.211182,253.978989 1538.476318,253.942062 1538.741333,253.905136 
	C1538.741333,209.110016 1538.741333,164.314880 1538.741333,119.251205 
	C1549.696533,119.251205 1560.293457,119.251205 1571.273193,119.251205 
	C1571.273193,195.960297 1571.273193,272.690521 1571.273193,349.713196 
	C1558.911377,349.713196 1546.512817,349.713196 1533.774170,349.713196 
	C1519.581787,294.803406 1505.380127,239.858109 1491.178467,184.912827 
	C1490.850952,184.955276 1490.523438,184.997742 1490.195923,185.040207 
	C1490.195923,208.526840 1490.195923,232.013474 1490.195923,256.000122 
z"/>
<path fill="#020202" opacity="1.000000" stroke="none" 
	d="
M46.464447,160.999741 
	C46.464462,146.861038 46.464462,133.222351 46.464462,119.275368 
	C47.519875,119.157127 48.290195,118.995590 49.060524,118.995544 
	C67.554832,118.994370 86.052437,118.817284 104.541580,119.132950 
	C110.645645,119.237160 116.853844,120.095222 122.796486,121.518570 
	C140.818573,125.835144 151.623489,137.828049 153.647079,155.818893 
	C155.212967,169.740585 154.938019,184.088165 153.562531,198.057465 
	C152.303009,210.849121 145.314468,221.073120 132.741684,226.493652 
	C137.047791,229.324738 141.530655,231.585892 145.169022,234.802322 
	C153.590729,242.247360 157.653290,252.270645 157.924393,263.158997 
	C158.328857,279.403656 159.049072,295.889252 156.848434,311.889038 
	C153.886902,333.420837 138.182831,347.225891 116.462540,348.869019 
	C99.061996,350.185394 81.525009,349.717133 64.047775,349.989563 
	C58.392487,350.077759 52.734665,350.003387 46.464428,350.003387 
	C46.464428,287.016846 46.464428,224.258301 46.464447,160.999741 
M115.464272,313.120453 
	C117.343338,309.902588 120.723747,306.738708 120.841637,303.457550 
	C121.352478,289.239655 121.433197,274.955933 120.576721,260.762177 
	C120.194733,254.431686 115.831413,248.935211 109.092529,247.824203 
	C100.698349,246.440277 92.098778,246.302094 83.372238,245.608841 
	C83.372238,269.926605 83.372238,292.970551 83.372238,316.541382 
	C89.045227,316.541382 94.531380,316.918671 99.939629,316.431335 
	C104.971275,315.977905 109.919914,314.603394 115.464272,313.120453 
M110.316895,154.935883 
	C101.600769,150.766342 92.447433,152.889618 83.538094,152.521057 
	C83.538094,172.955780 83.538094,192.841370 83.538094,212.748352 
	C89.095413,212.748352 94.275627,213.042877 99.410934,212.687881 
	C110.574432,211.916214 117.049553,206.235428 117.857796,195.483246 
	C118.541206,186.391617 118.240753,177.192642 117.832748,168.065460 
	C117.605026,162.971329 115.349709,158.425995 110.316895,154.935883 
z"/>
<path fill="#020202" opacity="1.000000" stroke="none" 
	d="
M979.133545,143.188110 
	C987.669678,126.197540 1002.005066,118.517586 1019.838806,117.307114 
	C1028.181519,116.740852 1036.858276,117.288902 1045.046387,118.972488 
	C1068.893555,123.875801 1079.934814,142.328873 1081.739258,163.608032 
	C1082.960815,178.012894 1082.827881,192.550034 1082.911133,207.030258 
	C1083.072266,235.023010 1082.925171,263.017395 1082.971924,291.010986 
	C1082.995605,305.154236 1081.472168,318.904297 1074.002686,331.388550 
	C1071.457031,335.643341 1075.395874,336.800110 1077.881836,337.648499 
	C1080.970337,338.702484 1084.419922,338.711304 1087.719238,339.126587 
	C1088.834595,339.266968 1089.966919,339.270538 1091.580933,339.365387 
	C1091.580933,349.532440 1091.627197,359.484375 1091.493042,369.433929 
	C1091.482178,370.231354 1090.366699,371.479523 1089.528809,371.730194 
	C1077.457275,375.341614 1060.130249,367.792297 1054.423706,356.550049 
	C1054.047485,355.808746 1053.478394,355.083160 1053.373169,354.299927 
	C1052.747192,349.647217 1050.223877,350.151398 1046.591797,351.074158 
	C1028.364136,355.705017 1010.631897,355.126312 994.253235,344.626770 
	C983.375061,337.653381 977.606689,327.141571 975.019470,314.861542 
	C973.792725,309.039032 973.075195,302.997284 973.051880,297.051208 
	C972.885620,254.728088 972.619995,212.399155 973.229919,170.084229 
	C973.357849,161.210876 976.989563,152.388016 979.133545,143.188110 
M1036.703491,151.465988 
	C1031.793945,151.116211 1026.770142,149.940475 1022.000183,150.600296 
	C1013.796875,151.735046 1009.129761,159.423431 1009.118286,170.449020 
	C1009.073608,213.411072 1009.065125,256.373291 1009.164062,299.335144 
	C1009.171570,302.606262 1009.783813,305.974457 1010.703613,309.125702 
	C1013.055969,317.184662 1018.914429,320.948334 1028.213989,320.818481 
	C1036.914673,320.697052 1043.109253,316.580872 1045.013916,308.813202 
	C1046.151367,304.174225 1046.686768,299.275696 1046.702393,294.491211 
	C1046.831421,255.026443 1046.810913,215.561005 1046.722046,176.096024 
	C1046.712646,171.960526 1046.267334,167.769455 1045.489258,163.706650 
	C1044.529907,158.697647 1042.421753,154.203339 1036.703491,151.465988 
z"/>
<path fill="#030303" opacity="1.000000" stroke="none" 
	d="
M1175.106689,289.966980 
	C1175.439575,295.769409 1175.324219,301.153595 1176.207275,306.368683 
	C1177.635376,314.802490 1183.511108,319.365051 1192.383301,319.788239 
	C1201.503174,320.223297 1207.970825,316.110779 1210.019043,307.692047 
	C1211.145020,303.064423 1211.418091,298.136932 1211.425903,293.343628 
	C1211.516724,237.185059 1211.484131,181.026306 1211.484253,124.867599 
	C1211.484253,123.063698 1211.484253,121.259796 1211.484253,119.220825 
	C1223.316528,119.220825 1234.756348,119.220825 1247.004395,119.220825 
	C1247.004395,120.727295 1247.004395,122.302727 1247.004395,123.878159 
	C1247.004395,180.203506 1247.189453,236.530045 1246.824463,292.853027 
	C1246.762817,302.372101 1245.497437,312.228546 1242.748169,321.311584 
	C1237.397949,338.986389 1224.484131,349.420807 1206.314087,351.831268 
	C1196.722534,353.103668 1186.555786,353.202362 1177.071411,351.490234 
	C1154.661865,347.444794 1140.666504,329.910553 1139.008301,305.820312 
	C1138.596802,299.841522 1138.380005,293.837250 1138.374756,287.844421 
	C1138.327515,233.518829 1138.347046,179.193192 1138.347046,124.867554 
	C1138.347046,123.070297 1138.347046,121.273041 1138.347046,119.231491 
	C1150.678833,119.231491 1162.599365,119.231491 1175.106689,119.231491 
	C1175.106689,175.973312 1175.106689,232.723068 1175.106689,289.966980 
z"/>
<path fill="#010101" opacity="1.000000" stroke="none" 
	d="
M395.625549,308.622559 
	C393.561920,322.531250 391.594055,336.005707 389.590149,349.727112 
	C378.350647,349.727112 367.255524,349.727112 355.382874,349.727112 
	C367.887451,272.907288 380.374908,196.192673 392.899780,119.248352 
	C409.470734,119.248352 425.868042,119.248352 442.600464,119.248352 
	C455.109741,196.067917 467.607635,272.817505 480.141541,349.788330 
	C467.701721,349.788330 455.600616,349.788330 443.310547,349.788330 
	C441.142303,334.856598 439.000214,320.105194 436.800568,304.957245 
	C423.844513,304.957245 411.046112,304.895142 398.251831,305.096039 
	C397.392365,305.109528 396.564087,307.111298 395.625549,308.622559 
M403.604370,273.004791 
	C413.061646,273.004791 422.518921,273.004791 432.378845,273.004791 
	C427.180695,236.354874 422.050598,200.184631 416.920471,164.014404 
	C415.588959,165.068405 415.269501,166.134735 415.117462,167.224411 
	C411.832123,190.769608 408.556244,214.316147 405.299469,237.865295 
	C403.841766,248.405411 402.369385,258.944519 401.087555,269.506378 
	C400.955627,270.593414 402.084869,271.833496 403.604370,273.004791 
z"/>
<path fill="#020202" opacity="1.000000" stroke="none" 
	d="
M706.856445,196.078979 
	C716.104065,205.662750 724.912781,215.191650 734.252075,224.168533 
	C746.199036,235.651932 757.991516,247.262512 764.043274,263.072296 
	C771.826477,283.405426 772.181213,304.082001 764.251465,324.459747 
	C759.127197,337.628143 749.300171,346.233612 735.675842,350.256836 
	C721.226990,354.523590 706.652283,354.668762 692.440613,349.750458 
	C672.998230,343.021912 664.619202,327.525513 662.121704,308.325592 
	C661.012085,299.795563 661.204041,291.096191 660.786621,282.072266 
	C672.751770,282.072266 684.129272,282.072266 696.130737,282.072266 
	C696.130737,288.237305 695.859680,294.538269 696.185303,300.808258 
	C696.942810,315.397278 706.806885,322.618256 720.597473,318.951080 
	C727.988647,316.985596 732.132263,310.583344 732.868835,300.375671 
	C734.100769,283.301758 727.054077,269.636902 715.337341,258.008667 
	C705.054077,247.803162 694.172791,238.182068 684.172424,227.713608 
	C664.414734,207.031052 657.960571,182.344681 663.893372,154.460587 
	C668.783325,131.478149 685.688477,117.043602 709.253784,116.094185 
	C716.847595,115.788246 724.689270,115.978806 732.086182,117.526085 
	C752.362305,121.767349 764.952271,136.390594 767.866333,158.474518 
	C768.945251,166.651581 768.948730,174.970566 769.461609,183.540863 
	C757.340149,183.540863 746.092651,183.540863 733.983826,183.540863 
	C733.983826,177.859131 734.280396,172.236694 733.924683,166.655838 
	C733.077759,153.368103 723.621277,146.655014 710.832458,149.977936 
	C703.832275,151.796768 699.787964,157.344910 698.984314,166.032501 
	C697.980957,176.879089 700.306763,186.840469 706.856445,196.078979 
z"/>
<path fill="#010101" opacity="1.000000" stroke="none" 
	d="
M1733.995850,314.804077 
	C1726.185059,347.276428 1700.266479,356.087433 1671.586548,352.482727 
	C1643.773315,348.986969 1630.081665,329.383118 1629.150635,302.864319 
	C1628.116455,273.405884 1628.783691,243.886719 1628.769409,214.393982 
	C1628.761597,198.231705 1628.368774,182.047348 1629.069824,165.912918 
	C1629.858276,147.765533 1635.795654,131.419220 1652.933228,122.597115 
	C1672.450684,112.549843 1692.844727,112.694473 1712.359741,122.968445 
	C1726.844116,130.593994 1733.118286,144.467331 1734.758789,159.850677 
	C1736.053101,171.987061 1735.019043,184.371780 1735.019043,196.900604 
	C1724.200684,196.900604 1712.813965,196.900604 1701.025513,196.900604 
	C1701.025513,188.597778 1701.103149,180.471451 1700.986328,172.347931 
	C1700.941162,169.208725 1700.768188,166.008728 1700.112183,162.952621 
	C1698.134644,153.739929 1691.857910,148.890778 1682.713135,149.163818 
	C1673.452148,149.440338 1667.274170,155.022568 1666.015869,164.482788 
	C1665.578003,167.774490 1665.393066,171.122986 1665.389648,174.445862 
	C1665.348389,214.603592 1665.354980,254.761383 1665.380493,294.919159 
	C1665.382080,297.579102 1665.534302,300.249146 1665.794312,302.897034 
	C1666.880127,313.957367 1673.198242,319.959503 1683.512085,319.821686 
	C1693.859253,319.683411 1700.502441,313.128113 1700.855835,301.924805 
	C1701.213135,290.604675 1700.987183,279.266296 1701.033325,267.935974 
	C1701.038696,266.637573 1701.151978,265.339600 1701.226685,263.805420 
	C1712.858032,263.805420 1724.282715,263.805420 1736.826416,263.805420 
	C1735.888306,280.885773 1734.968262,297.636627 1733.995850,314.804077 
z"/>
<path fill="#020202" opacity="1.000000" stroke="none" 
	d="
M297.820618,212.920105 
	C298.538818,219.373718 298.830658,225.790817 298.983124,232.211243 
	C299.089111,236.675079 299.003510,241.143463 299.003510,246.068176 
	C282.392181,246.068176 266.143127,246.068176 249.526062,246.068176 
	C249.526062,269.591461 249.526062,292.652649 249.526062,316.397430 
	C270.132233,316.397430 290.833649,316.397430 311.681702,316.397430 
	C311.681702,327.850708 311.681702,338.622131 311.681702,349.698364 
	C278.743683,349.698364 245.985306,349.698364 212.845154,349.698364 
	C212.845154,273.093414 212.845154,196.375214 212.845154,119.319672 
	C245.619446,119.319672 278.493225,119.319672 311.616028,119.319672 
	C311.616028,130.130798 311.616028,140.902496 311.616028,152.332703 
	C290.982361,152.332703 270.280273,152.332703 249.370697,152.332703 
	C249.370697,172.753967 249.370697,192.518951 249.370697,212.885025 
	C265.458679,212.885025 281.396698,212.885025 297.820618,212.920105 
z"/>
<path fill="#010101" opacity="1.000000" stroke="none" 
	d="
M1404.189331,125.057510 
	C1404.189331,134.342361 1404.189331,143.135178 1404.189331,152.311050 
	C1383.383911,152.311050 1362.972534,152.311050 1342.190063,152.311050 
	C1342.190063,172.566406 1342.190063,192.438705 1342.190063,212.766998 
	C1358.360352,212.766998 1374.601074,212.766998 1391.104248,212.766998 
	C1391.104248,223.969055 1391.104248,234.722565 1391.104248,245.985611 
	C1374.999756,245.985611 1358.775391,245.985611 1342.186157,245.985611 
	C1342.186157,269.688721 1342.186157,292.887115 1342.186157,316.430420 
	C1362.715454,316.430420 1383.156372,316.430420 1403.892090,316.430420 
	C1403.892090,327.674103 1403.892090,338.579437 1403.892090,349.743835 
	C1371.114502,349.743835 1338.367676,349.743835 1305.298828,349.743835 
	C1305.298828,273.128021 1305.298828,196.416107 1305.298828,119.345093 
	C1337.918091,119.345093 1370.782837,119.345093 1404.189331,119.345093 
	C1404.189331,121.037788 1404.189331,122.801636 1404.189331,125.057510 
z"/>
<path fill="#010101" opacity="1.000000" stroke="none" 
	d="
M1816.000000,118.986198 
	C1840.609375,118.986198 1864.718750,118.986198 1889.007446,118.986198 
	C1889.007446,130.190506 1889.007446,140.954193 1889.007446,152.271698 
	C1868.423706,152.271698 1847.887939,152.271698 1827.087280,152.271698 
	C1827.087280,172.703598 1827.087280,192.582901 1827.087280,212.912628 
	C1843.552002,212.912628 1859.793823,212.912628 1876.200195,212.912628 
	C1876.200195,224.119308 1876.200195,234.875961 1876.200195,246.139267 
	C1859.815796,246.139267 1843.591064,246.139267 1827.095459,246.139267 
	C1827.095459,269.730255 1827.095459,292.816742 1827.095459,316.433472 
	C1847.649170,316.433472 1868.195190,316.433472 1888.961670,316.433472 
	C1888.961670,327.741913 1888.961670,338.525635 1888.961670,349.655457 
	C1856.188965,349.655457 1823.322144,349.655457 1790.215576,349.655457 
	C1790.215576,272.965576 1790.215576,196.254593 1790.215576,118.986198 
	C1798.637695,118.986198 1807.068848,118.986198 1816.000000,118.986198 
z"/>
<path fill="#000000" opacity="1.000000" stroke="none" 
	d="
M896.990723,246.187958 
	C884.364624,246.187958 872.236328,246.187958 859.776672,246.187958 
	C859.776672,269.655426 859.776672,292.733521 859.776672,316.255798 
	C880.338135,316.255798 900.914673,316.255798 921.755249,316.255798 
	C921.755249,327.615051 921.755249,338.535431 921.755249,349.728516 
	C888.981567,349.728516 856.245972,349.728516 823.160889,349.728516 
	C823.160889,273.116852 823.160889,196.418930 823.160889,119.354088 
	C855.756897,119.354088 888.618042,119.354088 921.750977,119.354088 
	C921.750977,130.141724 921.750977,141.039505 921.750977,152.416779 
	C901.118774,152.416779 880.567261,152.416779 859.738525,152.416779 
	C859.738525,172.778854 859.738525,192.663193 859.738525,212.774628 
	C876.157715,212.774628 892.282471,212.774628 908.761963,212.774628 
	C908.761963,223.867447 908.761963,234.741302 908.761963,246.187943 
	C905.033997,246.187943 901.261292,246.187943 896.990723,246.187958 
z"/>
<path fill="#010101" opacity="1.000000" stroke="none" 
	d="
M542.998413,176.000015 
	C542.998413,168.011032 542.998413,160.522034 542.998413,152.523529 
	C530.394043,152.523529 517.987671,152.523529 505.344147,152.523529 
	C505.344147,141.246094 505.344147,130.474274 505.344147,119.342857 
	C542.601501,119.342857 579.944702,119.342857 617.504761,119.342857 
	C617.504761,130.219666 617.504761,140.974609 617.504761,152.203217 
	C605.114380,152.203217 592.874756,152.203217 580.152527,152.203217 
	C580.152527,218.193146 580.152527,283.713776 580.152527,349.617462 
	C567.632141,349.617462 555.590088,349.617462 542.998413,349.617462 
	C542.998413,291.977692 542.998413,234.238846 542.998413,176.000015 
z"/>
<path fill="#FBFBFB" opacity="1.000000" stroke="none" 
	d="
M115.184692,313.377441 
	C109.919914,314.603394 104.971275,315.977905 99.939629,316.431335 
	C94.531380,316.918671 89.045227,316.541382 83.372238,316.541382 
	C83.372238,292.970551 83.372238,269.926605 83.372238,245.608841 
	C92.098778,246.302094 100.698349,246.440277 109.092529,247.824203 
	C115.831413,248.935211 120.194733,254.431686 120.576721,260.762177 
	C121.433197,274.955933 121.352478,289.239655 120.841637,303.457550 
	C120.723747,306.738708 117.343338,309.902588 115.184692,313.377441 
z"/>
<path fill="#FAFAFA" opacity="1.000000" stroke="none" 
	d="
M110.659027,155.100128 
	C115.349709,158.425995 117.605026,162.971329 117.832748,168.065460 
	C118.240753,177.192642 118.541206,186.391617 117.857796,195.483246 
	C117.049553,206.235428 110.574432,211.916214 99.410934,212.687881 
	C94.275627,213.042877 89.095413,212.748352 83.538094,212.748352 
	C83.538094,192.841370 83.538094,172.955780 83.538094,152.521057 
	C92.447433,152.889618 101.600769,150.766342 110.659027,155.100128 
z"/>
<path fill="#FCFCFC" opacity="1.000000" stroke="none" 
	d="
M1037.038574,151.666489 
	C1042.421753,154.203339 1044.529907,158.697647 1045.489258,163.706650 
	C1046.267334,167.769455 1046.712646,171.960526 1046.722046,176.096024 
	C1046.810913,215.561005 1046.831421,255.026443 1046.702393,294.491211 
	C1046.686768,299.275696 1046.151367,304.174225 1045.013916,308.813202 
	C1043.109253,316.580872 1036.914673,320.697052 1028.213989,320.818481 
	C1018.914429,320.948334 1013.055969,317.184662 1010.703613,309.125702 
	C1009.783813,305.974457 1009.171570,302.606262 1009.164062,299.335144 
	C1009.065125,256.373291 1009.073608,213.411072 1009.118286,170.449020 
	C1009.129761,159.423431 1013.796875,151.735046 1022.000183,150.600296 
	C1026.770142,149.940475 1031.793945,151.116211 1037.038574,151.666489 
z"/>
<path fill="#FBFBFB" opacity="1.000000" stroke="none" 
	d="
M403.116638,273.003662 
	C402.084869,271.833496 400.955627,270.593414 401.087555,269.506378 
	C402.369385,258.944519 403.841766,248.405411 405.299469,237.865295 
	C408.556244,214.316147 411.832123,190.769608 415.117462,167.224411 
	C415.269501,166.134735 415.588959,165.068405 416.920471,164.014404 
	C422.050598,200.184631 427.180695,236.354874 432.378845,273.004791 
	C422.518921,273.004791 413.061646,273.004791 403.116638,273.003662 
z"/>
</svg>